<?xml version="1.0" encoding="utf-8"?>
<!-- Generator: Adobe Illustrator 22.0.1, SVG Export Plug-In . SVG Version: 6.00 Build 0)  -->
<svg version="1.1" id="Neu" xmlns="http://www.w3.org/2000/svg" xmlns:xlink="http://www.w3.org/1999/xlink" x="0px" y="0px"
	 viewBox="0 0 579.559021 151.5591125" style="enable-background:new 0 0 579.559021 151.5591125;" xml:space="preserve">
<style type="text/css">
	.st0{fill-rule:evenodd;clip-rule:evenodd;fill:#CAA54F;}
	.st1{fill-rule:evenodd;clip-rule:evenodd;}
	.st2{display:none;}
	.st3{display:inline;fill:#FFFFFF;}
	.st4{font-family:'ProximaNova-Bold';}
	.st5{font-size:61.5px;}
	.st6{fill:#FFFFFF;}
</style>
<g>
	<circle class="st0" cx="75.7795563" cy="75.7795563" r="75.7795563"/>
	<g>
		<polygon class="st1" points="186.5392456,2.4445019 579.559021,2.4445019 579.559021,85.7971344 454.0912781,85.7971344 
			454.0912781,149.1146088 186.5392456,149.1146088 		"/>
	</g>
</g>
<g id="Typo" class="st2">
	<text transform="matrix(1 0 0 1 211.9706726 62.3127899)" class="st3 st4 st5">Ton revenue </text>
	<text transform="matrix(1 0 0 1 211.4706726 126.8127899)" class="st3 st4 st5">de base</text>
</g>
<g id="Typo_Pfad">
	<g>
		<path class="st6" d="M225.4989929,62.3127594V28.9836597H213.507782v-7.6865234h32.7143555v7.6865234H234.29245v33.3291016
			H225.4989929z"/>
		<path class="st6" d="M243.704071,47.4319c0-8.4248047,5.9033203-15.5576153,15.6806641-15.5576153
			c9.8388672,0,15.7421875,7.1328106,15.7421875,15.5576153s-5.9033203,15.6191406-15.7421875,15.6191406
			C249.6073914,63.0510406,243.704071,55.8567047,243.704071,47.4319z M267.0097351,47.4319
			c0-4.6123047-2.7055664-8.609375-7.625-8.609375c-4.8579102,0-7.5634766,3.9970703-7.5634766,8.609375
			c0,4.6728516,2.7055664,8.6699219,7.5634766,8.6699219C264.3041687,56.1018219,267.0097351,52.1047516,267.0097351,47.4319z"/>
		<path class="st6" d="M301.0195007,62.3127594V44.3567047c0-4.1201172-2.1523438-5.5341797-5.4731445-5.5341797
			c-3.074707,0-5.4111328,1.7216797-6.7641602,3.4433594v20.046875h-7.8095703V32.6115875h7.8095703v3.8125
			c1.90625-2.2128906,5.5957031-4.5498028,10.3925781-4.5498028c6.5795898,0,9.7158203,3.6894512,9.7158203,9.4697247v20.96875
			H301.0195007z"/>
		<path class="st6" d="M332.3857117,62.3127594V32.6115875h7.8095703v3.9970703
			c2.1523438-2.5820312,5.7802734-4.7343731,9.4702148-4.7343731v7.6249981
			c-0.5537109-0.1230469-1.2299805-0.1845703-2.1523438-0.1845703c-2.5830078,0-6.0263672,1.4755859-7.3178711,3.3818359v19.6162109
			H332.3857117z"/>
		<path class="st6" d="M352.6186218,47.4319c0-8.609375,6.3955078-15.5576153,15.3730469-15.5576153
			c8.9169922,0,14.8818054,6.6406231,14.8818054,16.29492v1.8457031h-22.0761414
			c0.5532227,3.6279297,3.5048828,6.640625,8.546875,6.640625c2.5214844,0,5.9648438-1.0449219,7.8710938-2.8896484
			l3.5058594,5.1650391c-2.9521484,2.7060547-7.625,4.1201172-12.2373047,4.1201172
			C359.4443054,63.0510406,352.6186218,56.96315,352.6186218,47.4319z M367.9916687,38.2688141
			c-4.8579102,0-6.9487305,3.3828125-7.2558594,6.3339844h14.6347656
			C375.1254578,41.7746735,373.1576843,38.2688141,367.9916687,38.2688141z"/>
		<path class="st6" d="M396.2201843,62.3127594l-11.9296875-29.7011719h8.3632812l7.7480469,20.6621094l7.8095703-20.6621094
			h8.3632812L404.644989,62.3127594H396.2201843z"/>
		<path class="st6" d="M418.176239,47.4319c0-8.609375,6.3955078-15.5576153,15.3730469-15.5576153
			c8.9169922,0,14.8818359,6.6406231,14.8818359,16.29492v1.8457031H426.35495
			c0.5537109,3.6279297,3.5048828,6.640625,8.5478516,6.640625c2.5205078,0,5.9638672-1.0449219,7.8710938-2.8896484
			l3.5048828,5.1650391c-2.9521484,2.7060547-7.625,4.1201172-12.2373047,4.1201172
			C425.0024109,63.0510406,418.176239,56.96315,418.176239,47.4319z M433.5492859,38.2688141
			c-4.8574219,0-6.9482422,3.3828125-7.2558594,6.3339844h14.6347656
			C440.683075,41.7746735,438.7153015,38.2688141,433.5492859,38.2688141z"/>
		<path class="st6" d="M474.1381531,62.3127594V44.3567047c0-4.1201172-2.1523438-5.5341797-5.4726562-5.5341797
			c-3.0751953,0-5.4121094,1.7216797-6.7646484,3.4433594v20.046875h-7.8095703V32.6115875h7.8095703v3.8125
			c1.90625-2.2128906,5.5957031-4.5498028,10.3925781-4.5498028c6.5791016,0,9.7158203,3.6894512,9.7158203,9.4697247v20.96875
			H474.1381531z"/>
		<path class="st6" d="M509.7465515,62.3127594v-3.7509766c-2.0292969,2.2138672-5.5957031,4.4892578-10.4541016,4.4892578
			c-6.5185547,0-9.5927734-3.5664062-9.5927734-9.3466797V32.6115875h7.8095703v18.0175781
			c0,4.1201172,2.1523438,5.4726562,5.4726562,5.4726562c3.0136719,0,5.4121094-1.6601562,6.7646484-3.3818359V32.6115875h7.8095398
			v29.7011719H509.7465515z"/>
		<path class="st6" d="M523.4017944,47.4319c0-8.609375,6.3955078-15.5576153,15.3730469-15.5576153
			c8.9169922,0,14.8818359,6.6406231,14.8818359,16.29492v1.8457031h-22.0761719
			c0.5537109,3.6279297,3.5048828,6.640625,8.546875,6.640625c2.5214844,0,5.9648438-1.0449219,7.8710938-2.8896484
			l3.5058594,5.1650391c-2.9521484,2.7060547-7.625,4.1201172-12.2373047,4.1201172
			C530.2279663,63.0510406,523.4017944,56.96315,523.4017944,47.4319z M538.7748413,38.2688141
			c-4.8574219,0-6.9482422,3.3828125-7.2558594,6.3339844h14.6347656
			C545.9086304,41.7746735,543.9408569,38.2688141,538.7748413,38.2688141z"/>
	</g>
	<g>
		<path class="st6" d="M235.6352234,126.8127594v-3.8125c-2.3364258,2.9521484-5.5341797,4.5507812-9.1621094,4.5507812
			c-7.440918,0-13.159668-5.6572266-13.159668-15.6191406c0-9.6542969,5.5957031-15.5576172,13.159668-15.5576172
			c3.5048828,0,6.8256836,1.4755859,9.1621094,4.5498047V85.7971344h7.8710938v41.015625H235.6352234z M235.6352234,117.219986
			v-10.515625c-1.2910156-1.9677734-4.1201172-3.3818359-6.7026367-3.3818359c-4.4887695,0-7.5634766,3.5048828-7.5634766,8.609375
			c0,5.1650391,3.074707,8.6699219,7.5634766,8.6699219C231.5151062,120.6018219,234.3442078,119.1877594,235.6352234,117.219986z"
			/>
		<path class="st6" d="M249.3525085,111.9319c0-8.609375,6.3950195-15.5576172,15.3730469-15.5576172
			c8.9165039,0,14.8813477,6.640625,14.8813477,16.2949219v1.8457031h-22.0756836
			c0.5532227,3.6279297,3.5048828,6.640625,8.5473633,6.640625c2.5209961,0,5.9648438-1.0449219,7.8710938-2.8896484
			l3.5048828,5.1650391c-2.9516602,2.7060547-7.625,4.1201172-12.2368164,4.1201172
			C256.1781921,127.5510406,249.3525085,121.46315,249.3525085,111.9319z M264.7255554,102.7688141
			c-4.8579102,0-6.9487305,3.3828125-7.2558594,6.3339844H272.10495
			C271.8588562,106.2746735,269.8910828,102.7688141,264.7255554,102.7688141z"/>
		<path class="st6" d="M301.0727234,126.8127594v-41.015625h7.8095703v15.1269531
			c2.3369141-3.0742188,5.6572266-4.5498047,9.1625977-4.5498047c7.5634766,0,13.1591797,5.9033203,13.1591797,15.5576172
			c0,9.9619141-5.6572266,15.6191406-13.1591797,15.6191406c-3.5668945,0-6.8256836-1.5986328-9.1625977-4.5507812v3.8125
			H301.0727234z M315.6464539,120.6018219c4.4892578,0,7.5024414-3.5048828,7.5024414-8.6699219
			c0-5.1044922-3.0131836-8.609375-7.5024414-8.609375c-2.5825195,0-5.4111328,1.4755859-6.7641602,3.4433594v10.515625
			C310.235321,119.1877594,313.0639343,120.6018219,315.6464539,120.6018219z"/>
		<path class="st6" d="M354.9443054,126.8127594v-3.1357422c-2.0292969,2.4599609-5.5341797,3.8740234-9.4086914,3.8740234
			c-4.7348633,0-10.269043-3.1972656-10.269043-9.8388672c0-7.0107422,5.5341797-9.5927734,10.269043-9.5927734
			c3.9970703,0,7.440918,1.2910156,9.4086914,3.6279297v-3.7509766c0-3.0136719-2.5825195-4.9814453-6.5180664-4.9814453
			c-3.1362305,0-6.0878906,1.2304688-8.5478516,3.5058594l-3.074707-5.4736328
			c3.628418-3.2587891,8.3017578-4.6728516,12.9750977-4.6728516c6.8256836,0,13.0366211,2.7050781,13.0366211,11.2529297
			v19.1855469H354.9443054z M354.9443054,119.6799469v-3.6894531c-1.2915039-1.7216797-3.7509766-2.6445312-6.2724609-2.6445312
			c-3.074707,0-5.5957031,1.6601562-5.5957031,4.4892578c0,2.828125,2.5209961,4.4277344,5.5957031,4.4277344
			C351.1933289,122.2629547,353.6528015,121.4016266,354.9443054,119.6799469z"/>
		<path class="st6" d="M367.9233093,122.938736l3.3828125-5.6572266c2.2138672,2.0908203,6.5791016,4.1201172,10.2685547,4.1201172
			c3.3828125,0,4.9814453-1.2910156,4.9814453-3.1357422c0-4.8583984-17.5869141-0.8613281-17.5869141-12.5449219
			c0-4.9804688,4.3046875-9.3466797,12.1757812-9.3466797c4.9804688,0,8.9775391,1.7216797,11.9296875,4.0585938
			l-3.1367188,5.5341797c-1.7832031-1.8447266-5.1650391-3.4433594-8.7929688-3.4433594
			c-2.8291016,0-4.6738281,1.2294922-4.6738281,2.8896484c0,4.3662109,17.6484375,0.6767578,17.6484375,12.6679688
			c0,5.4726562-4.6738281,9.4697266-12.9130859,9.4697266C376.0404968,127.5510406,371.0600281,125.829361,367.9233093,122.938736z"
			/>
		<path class="st6" d="M397.9340515,111.9319c0-8.609375,6.3955078-15.5576172,15.3730469-15.5576172
			c8.9169922,0,14.8818359,6.640625,14.8818359,16.2949219v1.8457031h-22.0761719
			c0.5537109,3.6279297,3.5048828,6.640625,8.5478516,6.640625c2.5205078,0,5.9638672-1.0449219,7.8710938-2.8896484
			l3.5048828,5.1650391c-2.9521484,2.7060547-7.625,4.1201172-12.2373047,4.1201172
			C404.7602234,127.5510406,397.9340515,121.46315,397.9340515,111.9319z M413.3070984,102.7688141
			c-4.8574219,0-6.9482422,3.3828125-7.2558594,6.3339844h14.6347656
			C420.4408875,106.2746735,418.473114,102.7688141,413.3070984,102.7688141z"/>
	</g>
</g>
</svg>
