<?xml version="1.0" encoding="utf-8"?>
<!-- Generator: Adobe Illustrator 22.0.1, SVG Export Plug-In . SVG Version: 6.00 Build 0)  -->
<svg version="1.1" id="Neu" xmlns="http://www.w3.org/2000/svg" xmlns:xlink="http://www.w3.org/1999/xlink" x="0px" y="0px"
	 viewBox="0 0 601.5922241 151.5591125" style="enable-background:new 0 0 601.5922241 151.5591125;" xml:space="preserve">
<style type="text/css">
	.st0{fill-rule:evenodd;clip-rule:evenodd;fill:#CAA54F;}
	.st1{fill-rule:evenodd;clip-rule:evenodd;}
	.st2{display:none;}
	.st3{display:inline;fill:#FFFFFF;}
	.st4{font-family:'ProximaNova-Bold';}
	.st5{font-size:61.5px;}
	.st6{fill:#FFFFFF;}
</style>
<g>
	<circle class="st0" cx="75.7795563" cy="75.7795563" r="75.7795563"/>
	<g>
		<polygon class="st1" points="186.5392456,2.4445019 364.6357727,2.4445019 364.6357727,70.8905563 601.5922241,70.8905563 
			601.5922241,149.1146088 186.5392456,149.1146088 		"/>
	</g>
</g>
<g id="Typo" class="st2">
	<text transform="matrix(1 0 0 1 211.9706726 62.3127899)" class="st3 st4 st5">Your</text>
	<text transform="matrix(1 0 0 1 212.9706726 126.8127899)" class="st3 st4 st5">basic income</text>
</g>
<g id="Typo_Pfad">
	<g>
		<path class="st6" d="M227.4667664,62.3127594V45.52565l-15.7421875-24.2285137h9.9619141l10.1464844,16.4189434
			l10.1459961-16.4189434h9.9003906L236.1987,45.52565v16.7871094H227.4667664z"/>
		<path class="st6" d="M245.97995,47.4319c0-8.4248047,5.9033203-15.5576153,15.6806641-15.5576153
			c9.8388672,0,15.7421875,7.1328106,15.7421875,15.5576153s-5.9033203,15.6191406-15.7421875,15.6191406
			C251.8832703,63.0510406,245.97995,55.8567047,245.97995,47.4319z M269.285614,47.4319
			c0-4.6123047-2.7055664-8.609375-7.625-8.609375c-4.8579102,0-7.5634766,3.9970703-7.5634766,8.609375
			c0,4.6728516,2.7055664,8.6699219,7.5634766,8.6699219C266.5800476,56.1018219,269.285614,52.1047516,269.285614,47.4319z"/>
		<path class="st6" d="M303.2953796,62.3127594v-3.7509766c-2.0292969,2.2138672-5.5961914,4.4892578-10.4541016,4.4892578
			c-6.5180664,0-9.592804-3.5664062-9.592804-9.3466797V32.6115875h7.8096008v18.0175781
			c0,4.1201172,2.1523438,5.4726562,5.4731445,5.4726562c3.0131836,0,5.4111328-1.6601562,6.7641602-3.3818359V32.6115875h7.8095703
			v29.7011719H303.2953796z"/>
		<path class="st6" d="M318.8564148,62.3127594V32.6115875h7.8095703v3.9970703
			c2.1523438-2.5820312,5.7802734-4.7343731,9.4702148-4.7343731v7.6249981
			c-0.5537109-0.1230469-1.2299805-0.1845703-2.1523438-0.1845703c-2.5830078,0-6.0263672,1.4755859-7.3178711,3.3818359v19.6162109
			H318.8564148z"/>
	</g>
	<g>
		<path class="st6" d="M216.844696,126.8127594v-41.015625h7.8095703v15.1269531
			c2.3369141-3.0742188,5.6572266-4.5498047,9.1625977-4.5498047c7.5634766,0,13.1591797,5.9033203,13.1591797,15.5576172
			c0,9.9619141-5.6572266,15.6191406-13.1591797,15.6191406c-3.5668945,0-6.8256836-1.5986328-9.1625977-4.5507812v3.8125
			H216.844696z M231.4184265,120.6018219c4.4892578,0,7.5024414-3.5048828,7.5024414-8.6699219
			c0-5.1044922-3.0131836-8.609375-7.5024414-8.609375c-2.5825195,0-5.4111328,1.4755859-6.7641602,3.4433594v10.515625
			C226.0072937,119.1877594,228.835907,120.6018219,231.4184265,120.6018219z"/>
		<path class="st6" d="M270.7167664,126.8127594v-3.1357422c-2.0292969,2.4599609-5.5341797,3.8740234-9.4086914,3.8740234
			c-4.7348633,0-10.269043-3.1972656-10.269043-9.8388672c0-7.0107422,5.5341797-9.5927734,10.269043-9.5927734
			c3.9970703,0,7.440918,1.2910156,9.4086914,3.6279297v-3.7509766c0-3.0136719-2.5825195-4.9814453-6.5180664-4.9814453
			c-3.1362305,0-6.0878906,1.2304688-8.5478516,3.5058594l-3.074707-5.4736328
			c3.628418-3.2587891,8.3017578-4.6728516,12.9750977-4.6728516c6.8256836,0,13.0366211,2.7050781,13.0366211,11.2529297
			v19.1855469H270.7167664z M270.7167664,119.6799469v-3.6894531c-1.2915039-1.7216797-3.7509766-2.6445312-6.2724609-2.6445312
			c-3.074707,0-5.5957031,1.6601562-5.5957031,4.4892578c0,2.828125,2.5209961,4.4277344,5.5957031,4.4277344
			C266.9657898,122.2629547,269.4252625,121.4016266,270.7167664,119.6799469z"/>
		<path class="st6" d="M283.6957703,122.938736l3.3818359-5.6572266c2.2138672,2.0908203,6.5800781,4.1201172,10.2695312,4.1201172
			c3.3818359,0,4.980957-1.2910156,4.980957-3.1357422c0-4.8583984-17.5869141-0.8613281-17.5869141-12.5449219
			c0-4.9804688,4.3041992-9.3466797,12.175293-9.3466797c4.980957,0,8.9780273,1.7216797,11.9296875,4.0585938l-3.1362305,5.5341797
			c-1.7832031-1.8447266-5.1650391-3.4433594-8.793457-3.4433594c-2.8286133,0-4.6733398,1.2294922-4.6733398,2.8896484
			c0,4.3662109,17.6484375,0.6767578,17.6484375,12.6679688c0,5.4726562-4.6733398,9.4697266-12.9135742,9.4697266
			C291.8124695,127.5510406,286.8315125,125.829361,283.6957703,122.938736z"/>
		<path class="st6" d="M314.8749695,89.2404938c0-2.5820312,2.0908203-4.6113281,4.6118164-4.6113281
			c2.5830078,0,4.6733398,2.0292969,4.6733398,4.6113281c0,2.5830078-2.090332,4.6738281-4.6733398,4.6738281
			C316.9657898,93.9143219,314.8749695,91.8235016,314.8749695,89.2404938z M315.6127625,126.8127594V97.1115875h7.8095703
			v29.7011719H315.6127625z"/>
		<path class="st6" d="M329.2655945,111.9319c0-9.1015625,6.6411133-15.5576172,15.7421875-15.5576172
			c6.0878906,0,9.7773438,2.6435547,11.7451172,5.3496094l-5.1040039,4.796875
			c-1.4140625-2.0908203-3.5664062-3.1982422-6.2719727-3.1982422c-4.7353516,0-8.0556641,3.4433594-8.0556641,8.609375
			c0,5.1650391,3.3203125,8.6699219,8.0556641,8.6699219c2.7055664,0,4.8579102-1.2294922,6.2719727-3.2587891l5.1040039,4.796875
			c-1.9677734,2.7050781-5.6572266,5.4111328-11.7451172,5.4111328
			C335.9067078,127.5510406,329.2655945,121.0940094,329.2655945,111.9319z"/>
		<path class="st6" d="M376.926239,89.2404938c0-2.5820312,2.0908203-4.6113281,4.6123047-4.6113281
			c2.5830078,0,4.6738281,2.0292969,4.6738281,4.6113281c0,2.5830078-2.0908203,4.6738281-4.6738281,4.6738281
			C379.0170593,93.9143219,376.926239,91.8235016,376.926239,89.2404938z M377.6645203,126.8127594V97.1115875h7.8095703v29.7011719
			H377.6645203z"/>
		<path class="st6" d="M413.2709656,126.8127594v-17.9560547c0-4.1201172-2.1523438-5.5341797-5.4726562-5.5341797
			c-3.0751953,0-5.4121094,1.7216797-6.7646484,3.4433594v20.046875h-7.8095703V97.1115875h7.8095703v3.8125
			c1.90625-2.2128906,5.5957031-4.5498047,10.3925781-4.5498047c6.5791016,0,9.7158203,3.6894531,9.7158203,9.4697266v20.96875
			H413.2709656z"/>
		<path class="st6" d="M426.9252625,111.9319c0-9.1015625,6.6416016-15.5576172,15.7421875-15.5576172
			c6.0878906,0,9.7773438,2.6435547,11.7451172,5.3496094l-5.1035156,4.796875
			c-1.4150391-2.0908203-3.5673828-3.1982422-6.2724609-3.1982422c-4.7353516,0-8.0556641,3.4433594-8.0556641,8.609375
			c0,5.1650391,3.3203125,8.6699219,8.0556641,8.6699219c2.7050781,0,4.8574219-1.2294922,6.2724609-3.2587891l5.1035156,4.796875
			c-1.9677734,2.7050781-5.6572266,5.4111328-11.7451172,5.4111328
			C433.566864,127.5510406,426.9252625,121.0940094,426.9252625,111.9319z"/>
		<path class="st6" d="M457.613739,111.9319c0-8.4248047,5.9033203-15.5576172,15.6806641-15.5576172
			c9.8388672,0,15.7421875,7.1328125,15.7421875,15.5576172s-5.9033203,15.6191406-15.7421875,15.6191406
			C463.5170593,127.5510406,457.613739,120.3567047,457.613739,111.9319z M480.9194031,111.9319
			c0-4.6123047-2.7050781-8.609375-7.625-8.609375c-4.8583984,0-7.5634766,3.9970703-7.5634766,8.609375
			c0,4.6728516,2.7050781,8.6699219,7.5634766,8.6699219C478.214325,120.6018219,480.9194031,116.6047516,480.9194031,111.9319z"/>
		<path class="st6" d="M531.7162476,126.8127594v-18.7548828c0-2.7675781-1.2294922-4.7353516-4.4267578-4.7353516
			c-2.7675781,0-5.0429688,1.8447266-6.1494141,3.4433594v20.046875h-7.8710938v-18.7548828
			c0-2.7675781-1.2304688-4.7353516-4.4277039-4.7353516c-2.7060547,0-4.9814453,1.8447266-6.1494141,3.4433594v20.046875
			h-7.8095703V97.1115875h7.8095703v3.8125c1.2910156-1.7216797,5.1650391-4.5498047,9.7157898-4.5498047
			c4.3662109,0,7.1943359,2.0292969,8.2402344,5.3496094c1.7216797-2.6445312,5.6572266-5.3496094,10.2080078-5.3496094
			c5.4726562,0,8.7314453,2.8896484,8.7314453,8.9775391v21.4609375H531.7162476z"/>
		<path class="st6" d="M545.4349976,111.9319c0-8.609375,6.3955078-15.5576172,15.3730469-15.5576172
			c8.9169922,0,14.8818359,6.640625,14.8818359,16.2949219v1.8457031h-22.0761719
			c0.5537109,3.6279297,3.5048828,6.640625,8.546875,6.640625c2.5214844,0,5.9648438-1.0449219,7.8710938-2.8896484
			l3.5058594,5.1650391c-2.9521484,2.7060547-7.625,4.1201172-12.2373047,4.1201172
			C552.2611694,127.5510406,545.4349976,121.46315,545.4349976,111.9319z M560.8080444,102.7688141
			c-4.8574219,0-6.9482422,3.3828125-7.2558594,6.3339844h14.6347656
			C567.9418335,106.2746735,565.9740601,102.7688141,560.8080444,102.7688141z"/>
	</g>
</g>
</svg>
