<?xml version="1.0" encoding="utf-8"?>
<!-- Generator: Adobe Illustrator 22.0.1, SVG Export Plug-In . SVG Version: 6.00 Build 0)  -->
<svg version="1.1" id="Neu" xmlns="http://www.w3.org/2000/svg" xmlns:xlink="http://www.w3.org/1999/xlink" x="0px" y="0px"
	 viewBox="0 0 575.0883179 151.5591125" style="enable-background:new 0 0 575.0883179 151.5591125;" xml:space="preserve">
<style type="text/css">
	.st0{fill-rule:evenodd;clip-rule:evenodd;fill:#CAA54F;}
	.st1{fill-rule:evenodd;clip-rule:evenodd;}
	.st2{display:none;}
	.st3{display:inline;fill:#FFFFFF;}
	.st4{font-family:'ProximaNova-Bold';}
	.st5{font-size:61.5px;}
	.st6{fill:#FFFFFF;}
</style>
<g>
	<circle class="st0" cx="75.7795563" cy="75.7795563" r="75.7795563"/>
	<g>
		<polygon class="st1" points="186.5392456,2.4445019 575.0883179,2.4445019 575.0883179,85.7971344 435.7579346,85.7971344 
			435.7579346,149.1146088 186.5392456,149.1146088 		"/>
	</g>
</g>
<g id="Typo" class="st2">
	<text transform="matrix(1 0 0 1 211.9706726 62.3127899)" class="st3 st4 st5">Il tue reditto</text>
	<text transform="matrix(1 0 0 1 211.4706726 126.8127899)" class="st3 st4 st5">di base</text>
</g>
<g id="Typo_Pfad">
	<g>
		<path class="st6" d="M216.0292664,62.3127594v-41.015625H224.7612v41.015625H216.0292664z"/>
		<path class="st6" d="M232.6947937,62.3127594v-41.015625h7.8095703v41.015625H232.6947937z"/>
		<path class="st6" d="M265.657196,54.8723297V39.4377594h-4.9194336v-6.8261719h4.9194336v-8.1171856h7.8100586v8.1171856
			h6.0258789v6.8261719h-6.0258789v13.34375c0,1.90625,0.9833984,3.3203125,2.7055664,3.3203125
			c1.168457,0,2.2749023-0.4296875,2.7055664-0.921875l1.6601562,5.9648438
			c-1.1679688,1.0449219-3.2587891,1.90625-6.5180664,1.90625C268.5473328,63.0510406,265.657196,60.2219391,265.657196,54.8723297z
			"/>
		<path class="st6" d="M304.8925476,62.3127594v-3.7509766c-2.0292969,2.2138672-5.5961914,4.4892578-10.4541016,4.4892578
			c-6.5180664,0-9.5927734-3.5664062-9.5927734-9.3466797V32.6115875h7.8095703v18.0175781
			c0,4.1201172,2.1523438,5.4726562,5.4731445,5.4726562c3.0126953,0,5.4111328-1.6601562,6.7641602-3.3818359V32.6115875h7.8095703
			v29.7011719H304.8925476z"/>
		<path class="st6" d="M318.5473328,47.4319c0-8.609375,6.3955078-15.5576153,15.3730469-15.5576153
			c8.9165039,0,14.8813477,6.6406231,14.8813477,16.29492v1.8457031h-22.0756836
			c0.5532227,3.6279297,3.5048828,6.640625,8.5473633,6.640625c2.5209961,0,5.9648438-1.0449219,7.8710938-2.8896484
			l3.5048828,5.1650391c-2.9516602,2.7060547-7.625,4.1201172-12.2368164,4.1201172
			C325.3730164,63.0510406,318.5473328,56.96315,318.5473328,47.4319z M333.9203796,38.2688141
			c-4.8579102,0-6.9487305,3.3828125-7.2558594,6.3339844h14.6352539
			C341.0536804,41.7746735,339.085907,38.2688141,333.9203796,38.2688141z"/>
		<path class="st6" d="M370.2680359,62.3127594V32.6115875h7.8095703v3.9970703
			c2.1513672-2.5820312,5.7802734-4.7343731,9.4697266-4.7343731v7.6249981
			c-0.5537109-0.1230469-1.2304688-0.1845703-2.1523438-0.1845703c-2.5830078,0-6.0263672,1.4755859-7.3173828,3.3818359v19.6162109
			H370.2680359z"/>
		<path class="st6" d="M390.5004578,47.4319c0-8.609375,6.3955078-15.5576153,15.3730469-15.5576153
			c8.9169922,0,14.8818359,6.6406231,14.8818359,16.29492v1.8457031h-22.0761719
			c0.5537109,3.6279297,3.5048828,6.640625,8.5478516,6.640625c2.5205078,0,5.9638672-1.0449219,7.8710938-2.8896484
			l3.5048828,5.1650391c-2.9521484,2.7060547-7.625,4.1201172-12.2373047,4.1201172
			C397.3266296,63.0510406,390.5004578,56.96315,390.5004578,47.4319z M405.8735046,38.2688141
			c-4.8574219,0-6.9482422,3.3828125-7.2558594,6.3339844h14.6347656
			C413.0072937,41.7746735,411.0395203,38.2688141,405.8735046,38.2688141z"/>
		<path class="st6" d="M446.8315125,62.3127594v-3.8125c-2.3369141,2.9521484-5.5351562,4.5507812-9.1630859,4.5507812
			c-7.4404297,0-13.1591797-5.6572266-13.1591797-15.6191406c0-9.6542969,5.5957031-15.5576153,13.1591797-15.5576153
			c3.5058594,0,6.8261719,1.475584,9.1630859,4.5498028V21.2971363h7.8710938v41.015625H446.8315125z M446.8315125,52.719986
			V42.204361c-1.2919922-1.9677734-4.1201172-3.3818359-6.703125-3.3818359c-4.4892578,0-7.5634766,3.5048828-7.5634766,8.609375
			c0,5.1650391,3.0742188,8.6699219,7.5634766,8.6699219C442.7113953,56.1018219,445.5395203,54.6877594,446.8315125,52.719986z"/>
		<path class="st6" d="M461.7162781,24.7404957c0-2.5820312,2.0908203-4.6113281,4.6123047-4.6113281
			c2.5830078,0,4.6738281,2.0292969,4.6738281,4.6113281c0,2.5830078-2.0908203,4.6738281-4.6738281,4.6738281
			C463.8070984,29.4143238,461.7162781,27.3235035,461.7162781,24.7404957z M462.4545593,62.3127594V32.6115875h7.8095703
			v29.7011719H462.4545593z"/>
		<path class="st6" d="M479.6117859,54.8723297V39.4377594h-4.9189453v-6.8261719h4.9189453v-8.1171856h7.8095703v8.1171856
			h6.0263672v6.8261719h-6.0263672v13.34375c0,1.90625,0.984375,3.3203125,2.7060547,3.3203125
			c1.1679688,0,2.2753906-0.4296875,2.7050781-0.921875l1.6611328,5.9648438
			c-1.1689453,1.0449219-3.2597656,1.90625-6.5185547,1.90625
			C482.5024109,63.0510406,479.6117859,60.2219391,479.6117859,54.8723297z"/>
		<path class="st6" d="M500.3988953,54.8723297V39.4377594H495.47995v-6.8261719h4.9189453v-8.1171856h7.8095703v8.1171856
			h6.0263367v6.8261719h-6.0263367v13.34375c0,1.90625,0.984375,3.3203125,2.7060547,3.3203125
			c1.1679382,0,2.2753601-0.4296875,2.7050476-0.921875l1.6611328,5.9648438
			c-1.1689453,1.0449219-3.2597656,1.90625-6.5185242,1.90625
			C503.2895203,63.0510406,500.3988953,60.2219391,500.3988953,54.8723297z"/>
		<path class="st6" d="M517.6810913,47.4319c0-8.4248047,5.9033203-15.5576153,15.6806641-15.5576153
			c9.8388672,0,15.7421875,7.1328106,15.7421875,15.5576153s-5.9033203,15.6191406-15.7421875,15.6191406
			C523.5844116,63.0510406,517.6810913,55.8567047,517.6810913,47.4319z M540.9867554,47.4319
			c0-4.6123047-2.7050781-8.609375-7.625-8.609375c-4.8574219,0-7.5634766,3.9970703-7.5634766,8.609375
			c0,4.6728516,2.7060547,8.6699219,7.5634766,8.6699219C538.2816772,56.1018219,540.9867554,52.1047516,540.9867554,47.4319z"/>
	</g>
	<g>
		<path class="st6" d="M235.7602234,126.8127594v-3.8125c-2.3364258,2.9521484-5.5341797,4.5507812-9.1621094,4.5507812
			c-7.440918,0-13.159668-5.6572266-13.159668-15.6191406c0-9.6542969,5.5957031-15.5576172,13.159668-15.5576172
			c3.5048828,0,6.8256836,1.4755859,9.1621094,4.5498047V85.7971344h7.8710938v41.015625H235.7602234z M235.7602234,117.219986
			v-10.515625c-1.2910156-1.9677734-4.1201172-3.3818359-6.7026367-3.3818359c-4.4887695,0-7.5634766,3.5048828-7.5634766,8.609375
			c0,5.1650391,3.074707,8.6699219,7.5634766,8.6699219C231.6401062,120.6018219,234.4692078,119.1877594,235.7602234,117.219986z"
			/>
		<path class="st6" d="M250.6459656,89.2404938c0-2.5820312,2.0908203-4.6113281,4.6118164-4.6113281
			c2.5825195,0,4.6733398,2.0292969,4.6733398,4.6113281c0,2.5830078-2.0908203,4.6738281-4.6733398,4.6738281
			C252.7367859,93.9143219,250.6459656,91.8235016,250.6459656,89.2404938z M251.3837585,126.8127594V97.1115875h7.8095703
			v29.7011719H251.3837585z"/>
		<path class="st6" d="M282.7475281,126.8127594v-41.015625h7.8095703v15.1269531
			c2.3369141-3.0742188,5.6572266-4.5498047,9.1625977-4.5498047c7.5634766,0,13.1591797,5.9033203,13.1591797,15.5576172
			c0,9.9619141-5.6572266,15.6191406-13.1591797,15.6191406c-3.5668945,0-6.8256836-1.5986328-9.1625977-4.5507812v3.8125
			H282.7475281z M297.3212585,120.6018219c4.4892578,0,7.5024414-3.5048828,7.5024414-8.6699219
			c0-5.1044922-3.0131836-8.609375-7.5024414-8.609375c-2.5825195,0-5.4111328,1.4755859-6.7641602,3.4433594v10.515625
			C291.9101257,119.1877594,294.738739,120.6018219,297.3212585,120.6018219z"/>
		<path class="st6" d="M336.6191101,126.8127594v-3.1357422c-2.0292969,2.4599609-5.5341797,3.8740234-9.4086914,3.8740234
			c-4.7348633,0-10.269043-3.1972656-10.269043-9.8388672c0-7.0107422,5.5341797-9.5927734,10.269043-9.5927734
			c3.9970703,0,7.440918,1.2910156,9.4086914,3.6279297v-3.7509766c0-3.0136719-2.5825195-4.9814453-6.5180664-4.9814453
			c-3.1362305,0-6.0878906,1.2304688-8.5478516,3.5058594l-3.074707-5.4736328
			c3.628418-3.2587891,8.3017578-4.6728516,12.9750977-4.6728516c6.8256836,0,13.0366211,2.7050781,13.0366211,11.2529297
			v19.1855469H336.6191101z M336.6191101,119.6799469v-3.6894531c-1.2915039-1.7216797-3.7509766-2.6445312-6.2724609-2.6445312
			c-3.074707,0-5.5957031,1.6601562-5.5957031,4.4892578c0,2.828125,2.5209961,4.4277344,5.5957031,4.4277344
			C332.8681335,122.2629547,335.3276062,121.4016266,336.6191101,119.6799469z"/>
		<path class="st6" d="M349.598114,122.938736l3.3818359-5.6572266c2.2138672,2.0908203,6.5800781,4.1201172,10.2695312,4.1201172
			c3.3818359,0,4.9804688-1.2910156,4.9804688-3.1357422c0-4.8583984-17.5864258-0.8613281-17.5864258-12.5449219
			c0-4.9804688,4.3041992-9.3466797,12.175293-9.3466797c4.9814453,0,8.9785156,1.7216797,11.929657,4.0585938l-3.1357117,5.5341797
			c-1.7832031-1.8447266-5.1650391-3.4433594-8.7939453-3.4433594c-2.8286133,0-4.6733398,1.2294922-4.6733398,2.8896484
			c0,4.3662109,17.6489258,0.6767578,17.6489258,12.6679688c0,5.4726562-4.6738281,9.4697266-12.9140625,9.4697266
			C357.7148132,127.5510406,352.7338562,125.829361,349.598114,122.938736z"/>
		<path class="st6" d="M379.6088562,111.9319c0-8.609375,6.3955078-15.5576172,15.3730469-15.5576172
			c8.9169922,0,14.8818359,6.640625,14.8818359,16.2949219v1.8457031h-22.0761719
			c0.5537109,3.6279297,3.5048828,6.640625,8.546875,6.640625c2.5214844,0,5.9648438-1.0449219,7.8710938-2.8896484
			l3.5058594,5.1650391c-2.9521484,2.7060547-7.625,4.1201172-12.2373047,4.1201172
			C386.4350281,127.5510406,379.6088562,121.46315,379.6088562,111.9319z M394.9819031,102.7688141
			c-4.8574219,0-6.9482422,3.3828125-7.2558594,6.3339844h14.6347656
			C402.1156921,106.2746735,400.1479187,102.7688141,394.9819031,102.7688141z"/>
	</g>
</g>
</svg>
