<?xml version="1.0" encoding="utf-8"?>
<!-- Generator: Adobe Illustrator 18.1.1, SVG Export Plug-In . SVG Version: 6.00 Build 0)  -->
<svg version="1.1" id="Ebene_1" xmlns="http://www.w3.org/2000/svg" xmlns:xlink="http://www.w3.org/1999/xlink" x="0px" y="0px"
	 width="347px" height="70px" viewBox="49 61 347 70" style="enable-background:new 49 61 347 70;" xml:space="preserve">
<g id="Ebene_1_1_" style="display:none;">
	<circle style="display:inline;fill:#C2A25D;" cx="133" cy="157" r="35"/>
	<g style="display:inline;">
		<rect x="182.1" y="122" width="261.6" height="38.1"/>
		<rect x="182.1" y="155.1" width="121.5" height="36.8"/>
	</g>
	<rect x="190.9" y="129.9" style="display:inline;fill:none;" width="246.5" height="61.7"/>
	
		<text transform="matrix(1 0 0 1 189.8967 149.9104)" style="display:inline;fill:#FFFFFF; font-family:'ProximaNova-Bold'; font-size:30;">Grundeinkommen </text>
	
		<text transform="matrix(1 0 0 1 190.8967 181.9104)" style="display:inline;fill:#FFFFFF; font-family:'ProximaNova-Bold'; font-size:30;">für</text>
	
		<text transform="matrix(1 0 0 1 228.8967 181.9104)" style="display:inline;fill:#FFFFFF; font-family:'ProximaNova-Bold'; font-size:30; letter-spacing:-3;"> </text>
	
		<text transform="matrix(1 0 0 1 231.7967 181.9104)" style="display:inline;fill:#C2A25D; font-family:'ProximaNova-Bold'; font-size:30;">Dich</text>
</g>
<g id="Ebene_2">
	<circle style="fill:#C2A567;" cx="84" cy="96" r="35"/>
	<polygon points="395,61 133,61 133,131 255,131 255,99 395,99 	"/>
	<g>
		<path style="fill:#FFFFFF;" d="M152.6,68.6c4.2,0,6.8,2.1,8.3,4.5l-3.5,1.9c-0.9-1.4-2.6-2.6-4.7-2.6c-3.6,0-6.3,2.8-6.3,6.6
			s2.6,6.6,6.3,6.6c1.8,0,3.5-0.8,4.3-1.5v-2.4h-5.3V78h9.5v7.7c-2,2.3-4.9,3.8-8.5,3.8c-5.8,0-10.6-4.1-10.6-10.4
			C141.9,72.6,146.7,68.6,152.6,68.6z"/>
		<path style="fill:#FFFFFF;" d="M164.4,74.4h3.8v2c1-1.3,2.8-2.3,4.6-2.3v3.7c-0.3-0.1-0.6-0.1-1.1-0.1c-1.3,0-2.9,0.7-3.6,1.6v9.6
			h-3.8L164.4,74.4L164.4,74.4z"/>
		<path style="fill:#FFFFFF;" d="M185,87.1c-1,1.1-2.7,2.2-5.1,2.2c-3.2,0-4.7-1.7-4.7-4.6V74.4h3.8v8.8c0,2,1,2.7,2.7,2.7
			c1.5,0,2.6-0.8,3.3-1.6v-9.8h3.8V89H185V87.1z"/>
		<path style="fill:#FFFFFF;" d="M202.3,80.2c0-2-1-2.7-2.7-2.7c-1.5,0-2.7,0.8-3.3,1.7v9.7h-3.8V74.4h3.8v1.9
			c0.9-1.1,2.7-2.2,5.1-2.2c3.2,0,4.7,1.8,4.7,4.6v10.2h-3.8V80.2z"/>
		<path style="fill:#FFFFFF;" d="M219.9,87.1c-1.1,1.4-2.7,2.2-4.5,2.2c-3.7,0-6.4-2.8-6.4-7.6c0-4.7,2.7-7.6,6.4-7.6
			c1.7,0,3.3,0.8,4.5,2.2v-7.4h3.8v20h-3.8V87.1z M219.9,79.1c-0.6-1-2-1.6-3.3-1.6c-2.2,0-3.7,1.7-3.7,4.2s1.5,4.2,3.7,4.2
			c1.3,0,2.7-0.7,3.3-1.6V79.1z"/>
		<path style="fill:#FFFFFF;" d="M234.1,74.1c4.3,0,7.3,3.2,7.3,8v0.8h-10.8c0.2,1.8,1.7,3.4,4.2,3.4c1.4,0,2.9-0.5,3.9-1.4l1.7,2.5
			c-1.4,1.3-3.7,2-6,2c-4.4,0-7.7-3-7.7-7.6C226.6,77.5,229.7,74.1,234.1,74.1z M230.5,80.3h7.1c-0.1-1.4-1-3.2-3.6-3.2
			C231.7,77.1,230.7,78.9,230.5,80.3z"/>
		<path style="fill:#FFFFFF;" d="M243.7,70.6c0-1.3,1-2.2,2.3-2.2s2.3,1,2.3,2.2c0,1.3-1,2.3-2.3,2.3
			C244.8,72.9,243.7,71.8,243.7,70.6z M244.1,74.4h3.8v14.5h-3.8V74.4z"/>
		<path style="fill:#FFFFFF;" d="M261.5,80.2c0-2-1-2.7-2.7-2.7c-1.5,0-2.7,0.8-3.3,1.7v9.7h-3.8V74.4h3.8v1.9
			c0.9-1.1,2.7-2.2,5.1-2.2c3.2,0,4.7,1.8,4.7,4.6v10.2h-3.8V80.2z"/>
		<path style="fill:#FFFFFF;" d="M274.6,83.3l-1.7,1.9v3.7h-3.8v-20h3.8v12l5.5-6.4h4.7l-5.7,6.6l5.9,7.9h-4.8L274.6,83.3z"/>
		<path style="fill:#FFFFFF;" d="M284,81.7c0-4.1,2.9-7.6,7.6-7.6c4.8,0,7.7,3.5,7.7,7.6s-2.9,7.6-7.7,7.6S284,85.8,284,81.7z
			 M295.3,81.7c0-2.2-1.3-4.2-3.7-4.2s-3.7,1.9-3.7,4.2c0,2.3,1.3,4.2,3.7,4.2S295.3,83.9,295.3,81.7z"/>
		<path style="fill:#FFFFFF;" d="M320.1,79.8c0-1.4-0.6-2.3-2.2-2.3c-1.3,0-2.5,0.9-3,1.7V89h-3.8v-9.1c0-1.4-0.6-2.3-2.2-2.3
			c-1.3,0-2.4,0.9-3,1.7V89h-3.8V74.4h3.8v1.9c0.6-0.9,2.5-2.2,4.7-2.2c2.1,0,3.5,1,4,2.6c0.8-1.3,2.8-2.6,5-2.6
			c2.7,0,4.3,1.4,4.3,4.4V89h-3.8V79.8z"/>
		<path style="fill:#FFFFFF;" d="M345.6,79.8c0-1.4-0.6-2.3-2.2-2.3c-1.3,0-2.5,0.9-3,1.7V89h-3.8v-9.1c0-1.4-0.6-2.3-2.2-2.3
			c-1.3,0-2.4,0.9-3,1.7V89h-3.8V74.4h3.8v1.9c0.6-0.9,2.5-2.2,4.7-2.2c2.1,0,3.5,1,4,2.6c0.8-1.3,2.8-2.6,5-2.6
			c2.7,0,4.3,1.4,4.3,4.4V89h-3.8V79.8z"/>
		<path style="fill:#FFFFFF;" d="M359.8,74.1c4.3,0,7.3,3.2,7.3,8v0.8h-10.8c0.2,1.8,1.7,3.4,4.2,3.4c1.3,0,2.9-0.5,3.9-1.4l1.7,2.5
			c-1.4,1.3-3.7,2-6,2c-4.4,0-7.7-3-7.7-7.6C352.3,77.5,355.4,74.1,359.8,74.1z M356.2,80.3h7.1c-0.1-1.4-1-3.2-3.6-3.2
			C357.4,77.1,356.4,78.9,356.2,80.3z"/>
		<path style="fill:#FFFFFF;" d="M379.6,80.2c0-2-1.1-2.7-2.7-2.7c-1.5,0-2.7,0.8-3.3,1.7v9.7h-3.8V74.4h3.8v1.9
			c0.9-1.1,2.7-2.2,5.1-2.2c3.2,0,4.7,1.8,4.7,4.6v10.2h-3.8L379.6,80.2L379.6,80.2z"/>
		<path style="fill:#FFFFFF;" d="M144.6,109.8h-2.4v-3.3h2.4v-0.8c0-3.1,2-5,4.9-5c1.1,0,2.1,0.2,2.8,0.6l-0.8,2.7
			c-0.3-0.2-0.8-0.3-1.2-0.3c-1.1,0-1.8,0.7-1.8,2.1v0.7h2.9v3.3h-2.9V121h-3.8L144.6,109.8L144.6,109.8z"/>
		<path style="fill:#FFFFFF;" d="M163.4,119.1c-1,1.1-2.7,2.2-5.1,2.2c-3.2,0-4.7-1.7-4.7-4.6v-10.3h3.8v8.8c0,2,1,2.7,2.7,2.7
			c1.5,0,2.6-0.8,3.3-1.6v-9.8h3.8V121h-3.8V119.1z M155.2,102.6c0-1.1,0.9-2,2-2s2,0.9,2,2s-0.9,2-2,2S155.2,103.7,155.2,102.6z
			 M161.5,102.6c0-1.1,0.9-2,2-2s2,0.9,2,2s-0.9,2-2,2S161.5,103.7,161.5,102.6z"/>
		<path style="fill:#FFFFFF;" d="M171,106.4h3.8v2c1-1.3,2.8-2.3,4.6-2.3v3.7c-0.3-0.1-0.6-0.1-1.1-0.1c-1.3,0-2.9,0.7-3.6,1.7v9.6
			H171V106.4z"/>
		<path style="fill:#C2A567;" d="M184.7,100.9h7.9c6.3,0,10.6,4,10.6,10s-4.4,10-10.6,10h-7.9V100.9z M192.6,117.2
			c4,0,6.3-2.8,6.3-6.2c0-3.5-2.2-6.3-6.3-6.3H189v12.5H192.6z"/>
		<path style="fill:#C2A567;" d="M205.8,102.6c0-1.3,1-2.2,2.3-2.2s2.3,1,2.3,2.2s-1,2.3-2.3,2.3S205.8,103.8,205.8,102.6z
			 M206.2,106.4h3.8v14.5h-3.8V106.4z"/>
		<path style="fill:#C2A567;" d="M220.5,106.1c3,0,4.8,1.3,5.7,2.6l-2.5,2.3c-0.7-1-1.7-1.6-3.1-1.6c-2.3,0-3.9,1.7-3.9,4.2
			s1.6,4.2,3.9,4.2c1.3,0,2.4-0.6,3.1-1.6l2.5,2.3c-1,1.3-2.8,2.6-5.7,2.6c-4.5,0-7.7-3.2-7.7-7.6
			C212.8,109.2,216.1,106.1,220.5,106.1z"/>
		<path style="fill:#C2A567;" d="M238.6,112.1c0-2-1.1-2.6-2.7-2.6c-1.5,0-2.6,0.8-3.3,1.7v9.7h-3.8v-20h3.8v7.4
			c0.9-1.1,2.7-2.2,5.1-2.2c3.2,0,4.7,1.7,4.7,4.6V121h-3.8V112.1z"/>
	</g>
</g>
</svg>
