<?xml version="1.0" encoding="UTF-8"?>
<svg width="742px" height="152px" viewBox="0 0 742 152" xmlns="http://www.w3.org/2000/svg" xmlns:xlink="http://www.w3.org/1999/xlink" version="1.1">
 <!-- Generated by Pixelmator Pro 1.8 -->
 <g id="group">
  <path id="Path" d="M75.78 151.559 C117.632 151.559 151.56 117.633 151.56 75.78 151.56 33.927 117.632 0 75.78 0 33.928 0 0 33.927 0 75.78 0 117.633 33.928 151.559 75.78 151.559" fill="#caa54f" fill-opacity="1" stroke="none"/>
  <path id="Path-1" d="M186.539 2.445 L568.375 2.367 567.828 69.898 704.157 70.891 704.157 149.115 186.539 149.115 Z" fill="#000000" fill-opacity="1" stroke="none"/>
  <path id="Association" d="M512.424 59 L520.552 59 520.552 38.136 C521.277 37.24 522.227 36.419 523.4 35.672 524.573 34.925 525.971 34.552 527.592 34.552 529.341 34.552 530.728 34.968 531.752 35.8 532.776 36.632 533.288 38.136 533.288 40.312 L533.288 59 541.48 59 541.48 37.176 C541.48 34.147 540.659 31.747 539.016 29.976 537.373 28.205 534.824 27.32 531.368 27.32 528.851 27.32 526.664 27.821 524.808 28.824 522.952 29.827 521.533 30.904 520.552 32.056 L520.552 28.088 512.424 28.088 Z M489.96 59.768 C492.52 59.768 494.813 59.331 496.84 58.456 498.867 57.581 500.584 56.408 501.992 54.936 503.4 53.464 504.477 51.736 505.224 49.752 505.971 47.768 506.344 45.688 506.344 43.512 506.344 41.336 505.971 39.267 505.224 37.304 504.477 35.341 503.4 33.624 501.992 32.152 500.584 30.68 498.867 29.507 496.84 28.632 494.813 27.757 492.52 27.32 489.96 27.32 487.4 27.32 485.117 27.757 483.112 28.632 481.107 29.507 479.4 30.68 477.992 32.152 476.584 33.624 475.507 35.341 474.76 37.304 474.013 39.267 473.64 41.336 473.64 43.512 473.64 45.688 474.013 47.768 474.76 49.752 475.507 51.736 476.584 53.464 477.992 54.936 479.4 56.408 481.107 57.581 483.112 58.456 485.117 59.331 487.4 59.768 489.96 59.768 Z M489.96 34.552 C491.24 34.552 492.371 34.797 493.352 35.288 494.333 35.779 495.165 36.429 495.848 37.24 496.531 38.051 497.043 39 497.384 40.088 497.725 41.176 497.896 42.317 497.896 43.512 497.896 45.944 497.213 48.056 495.848 49.848 494.483 51.64 492.52 52.536 489.96 52.536 488.68 52.536 487.56 52.291 486.6 51.8 485.64 51.309 484.819 50.659 484.136 49.848 483.453 49.037 482.941 48.077 482.6 46.968 482.259 45.859 482.088 44.707 482.088 43.512 482.088 42.317 482.259 41.176 482.6 40.088 482.941 39 483.453 38.051 484.136 37.24 484.819 36.429 485.64 35.779 486.6 35.288 487.56 34.797 488.68 34.552 489.96 34.552 Z M459.432 59 L467.56 59 467.56 28.088 459.432 28.088 Z M458.664 19.896 C458.664 21.261 459.133 22.413 460.072 23.352 461.011 24.291 462.141 24.76 463.464 24.76 464.829 24.76 465.981 24.291 466.92 23.352 467.859 22.413 468.328 21.261 468.328 19.896 468.328 18.531 467.859 17.389 466.92 16.472 465.981 15.555 464.829 15.096 463.464 15.096 462.141 15.096 461.011 15.555 460.072 16.472 459.133 17.389 458.664 18.531 458.664 19.896 Z M439.464 35.192 L439.464 51.256 C439.464 56.931 442.365 59.768 448.168 59.768 449.875 59.768 451.283 59.576 452.392 59.192 453.501 58.808 454.355 58.339 454.952 57.784 L453.224 51.576 C453.011 51.832 452.637 52.056 452.104 52.248 451.571 52.44 451.005 52.536 450.408 52.536 449.512 52.536 448.819 52.205 448.328 51.544 447.837 50.883 447.592 50.061 447.592 49.08 L447.592 35.192 453.864 35.192 453.864 28.088 447.592 28.088 447.592 19.64 439.464 19.64 439.464 28.088 434.344 28.088 434.344 35.192 Z M429.8 59 L429.8 39.032 C429.8 36.813 429.427 34.957 428.68 33.464 427.933 31.971 426.931 30.765 425.672 29.848 424.413 28.931 422.973 28.28 421.352 27.896 419.731 27.512 418.024 27.32 416.232 27.32 413.8 27.32 411.421 27.704 409.096 28.472 406.771 29.24 404.648 30.477 402.728 32.184 L405.928 37.88 C408.573 35.448 411.539 34.232 414.824 34.232 416.872 34.232 418.515 34.701 419.752 35.64 420.989 36.579 421.608 37.837 421.608 39.416 L421.608 43.32 C420.584 42.083 419.219 41.144 417.512 40.504 415.805 39.864 413.907 39.544 411.816 39.544 410.579 39.544 409.331 39.725 408.072 40.088 406.813 40.451 405.672 41.027 404.648 41.816 403.624 42.605 402.781 43.629 402.12 44.888 401.459 46.147 401.128 47.693 401.128 49.528 401.128 51.235 401.459 52.739 402.12 54.04 402.781 55.341 403.624 56.408 404.648 57.24 405.672 58.072 406.813 58.701 408.072 59.128 409.331 59.555 410.579 59.768 411.816 59.768 413.864 59.768 415.741 59.416 417.448 58.712 419.155 58.008 420.541 57.016 421.608 55.736 L421.608 59 Z M421.608 51.576 C420.925 52.472 419.997 53.144 418.824 53.592 417.651 54.04 416.403 54.264 415.08 54.264 413.459 54.264 412.083 53.869 410.952 53.08 409.821 52.291 409.256 51.149 409.256 49.656 409.256 48.163 409.821 47.011 410.952 46.2 412.083 45.389 413.459 44.984 415.08 44.984 416.403 44.984 417.651 45.219 418.824 45.688 419.997 46.157 420.925 46.84 421.608 47.736 Z M386.856 59 L394.984 59 394.984 28.088 386.856 28.088 Z M386.088 19.896 C386.088 21.261 386.557 22.413 387.496 23.352 388.435 24.291 389.565 24.76 390.888 24.76 392.253 24.76 393.405 24.291 394.344 23.352 395.283 22.413 395.752 21.261 395.752 19.896 395.752 18.531 395.283 17.389 394.344 16.472 393.405 15.555 392.253 15.096 390.888 15.096 389.565 15.096 388.435 15.555 387.496 16.472 386.557 17.389 386.088 18.531 386.088 19.896 Z M369.32 59.768 C372.52 59.768 375.101 59.181 377.064 58.008 379.027 56.835 380.52 55.544 381.544 54.136 L376.232 49.144 C375.507 50.211 374.589 51.043 373.48 51.64 372.371 52.237 371.112 52.536 369.704 52.536 367.229 52.536 365.213 51.704 363.656 50.04 362.099 48.376 361.32 46.2 361.32 43.512 361.32 40.824 362.099 38.659 363.656 37.016 365.213 35.373 367.229 34.552 369.704 34.552 372.563 34.552 374.739 35.661 376.232 37.88 L381.544 32.888 C380.52 31.48 379.027 30.2 377.064 29.048 375.101 27.896 372.52 27.32 369.32 27.32 366.973 27.32 364.797 27.715 362.792 28.504 360.787 29.293 359.048 30.413 357.576 31.864 356.104 33.315 354.963 35.021 354.152 36.984 353.341 38.947 352.936 41.123 352.936 43.512 352.936 45.901 353.341 48.088 354.152 50.072 354.963 52.056 356.104 53.773 357.576 55.224 359.048 56.675 360.787 57.795 362.792 58.584 364.797 59.373 366.973 59.768 369.32 59.768 Z M332.456 59.768 C335.016 59.768 337.309 59.331 339.336 58.456 341.363 57.581 343.08 56.408 344.488 54.936 345.896 53.464 346.973 51.736 347.72 49.752 348.467 47.768 348.84 45.688 348.84 43.512 348.84 41.336 348.467 39.267 347.72 37.304 346.973 35.341 345.896 33.624 344.488 32.152 343.08 30.68 341.363 29.507 339.336 28.632 337.309 27.757 335.016 27.32 332.456 27.32 329.896 27.32 327.613 27.757 325.608 28.632 323.603 29.507 321.896 30.68 320.488 32.152 319.08 33.624 318.003 35.341 317.256 37.304 316.509 39.267 316.136 41.336 316.136 43.512 316.136 45.688 316.509 47.768 317.256 49.752 318.003 51.736 319.08 53.464 320.488 54.936 321.896 56.408 323.603 57.581 325.608 58.456 327.613 59.331 329.896 59.768 332.456 59.768 Z M332.456 34.552 C333.736 34.552 334.867 34.797 335.848 35.288 336.829 35.779 337.661 36.429 338.344 37.24 339.027 38.051 339.539 39 339.88 40.088 340.221 41.176 340.392 42.317 340.392 43.512 340.392 45.944 339.709 48.056 338.344 49.848 336.979 51.64 335.016 52.536 332.456 52.536 331.176 52.536 330.056 52.291 329.096 51.8 328.136 51.309 327.315 50.659 326.632 49.848 325.949 49.037 325.437 48.077 325.096 46.968 324.755 45.859 324.584 44.707 324.584 43.512 324.584 42.317 324.755 41.176 325.096 40.088 325.437 39 325.949 38.051 326.632 37.24 327.315 36.429 328.136 35.779 329.096 35.288 330.056 34.797 331.176 34.552 332.456 34.552 Z M284.904 54.968 C286.525 56.461 288.563 57.635 291.016 58.488 293.469 59.341 296.04 59.768 298.728 59.768 303.037 59.768 306.355 58.84 308.68 56.984 311.005 55.128 312.168 52.771 312.168 49.912 312.168 47.821 311.709 46.157 310.792 44.92 309.875 43.683 308.744 42.701 307.4 41.976 306.056 41.251 304.584 40.707 302.984 40.344 301.384 39.981 299.912 39.661 298.568 39.384 297.224 39.107 296.093 38.787 295.176 38.424 294.259 38.061 293.8 37.496 293.8 36.728 293.8 35.875 294.237 35.16 295.112 34.584 295.987 34.008 297.171 33.72 298.664 33.72 300.584 33.72 302.355 34.072 303.976 34.776 305.597 35.48 306.877 36.323 307.816 37.304 L311.08 31.544 C309.544 30.307 307.741 29.293 305.672 28.504 303.603 27.715 301.267 27.32 298.664 27.32 296.616 27.32 294.803 27.587 293.224 28.12 291.645 28.653 290.323 29.368 289.256 30.264 288.189 31.16 287.379 32.195 286.824 33.368 286.269 34.541 285.992 35.768 285.992 37.048 285.992 39.053 286.44 40.664 287.336 41.88 288.232 43.096 289.363 44.045 290.728 44.728 292.093 45.411 293.565 45.912 295.144 46.232 296.723 46.552 298.195 46.861 299.56 47.16 300.925 47.459 302.056 47.811 302.952 48.216 303.848 48.621 304.296 49.251 304.296 50.104 304.296 51.085 303.88 51.875 303.048 52.472 302.216 53.069 300.904 53.368 299.112 53.368 298.173 53.368 297.192 53.251 296.168 53.016 295.144 52.781 294.152 52.461 293.192 52.056 292.232 51.651 291.347 51.192 290.536 50.68 289.725 50.168 289.021 49.635 288.424 49.08 Z M254.376 54.968 C255.997 56.461 258.035 57.635 260.488 58.488 262.941 59.341 265.512 59.768 268.2 59.768 272.509 59.768 275.827 58.84 278.152 56.984 280.477 55.128 281.64 52.771 281.64 49.912 281.64 47.821 281.181 46.157 280.264 44.92 279.347 43.683 278.216 42.701 276.872 41.976 275.528 41.251 274.056 40.707 272.456 40.344 270.856 39.981 269.384 39.661 268.04 39.384 266.696 39.107 265.565 38.787 264.648 38.424 263.731 38.061 263.272 37.496 263.272 36.728 263.272 35.875 263.709 35.16 264.584 34.584 265.459 34.008 266.643 33.72 268.136 33.72 270.056 33.72 271.827 34.072 273.448 34.776 275.069 35.48 276.349 36.323 277.288 37.304 L280.552 31.544 C279.016 30.307 277.213 29.293 275.144 28.504 273.075 27.715 270.739 27.32 268.136 27.32 266.088 27.32 264.275 27.587 262.696 28.12 261.117 28.653 259.795 29.368 258.728 30.264 257.661 31.16 256.851 32.195 256.296 33.368 255.741 34.541 255.464 35.768 255.464 37.048 255.464 39.053 255.912 40.664 256.808 41.88 257.704 43.096 258.835 44.045 260.2 44.728 261.565 45.411 263.037 45.912 264.616 46.232 266.195 46.552 267.667 46.861 269.032 47.16 270.397 47.459 271.528 47.811 272.424 48.216 273.32 48.621 273.768 49.251 273.768 50.104 273.768 51.085 273.352 51.875 272.52 52.472 271.688 53.069 270.376 53.368 268.584 53.368 267.645 53.368 266.664 53.251 265.64 53.016 264.616 52.781 263.624 52.461 262.664 52.056 261.704 51.651 260.819 51.192 260.008 50.68 259.197 50.168 258.493 49.635 257.896 49.08 Z M221.992 51.768 L240.296 51.768 242.984 59 253.288 59 236.84 16.312 225.448 16.312 209 59 219.304 59 Z M231.144 25.4 L237.8 43.768 224.488 43.768 Z" fill="#ffffff" fill-opacity="1" stroke="none"/>
  <path id="revenue-de-base" d="M668.264 130.768 C670.696 130.768 673.043 130.405 675.304 129.68 677.565 128.955 679.464 127.888 681 126.48 L677.352 121.104 C676.371 122.085 675.091 122.832 673.512 123.344 671.933 123.856 670.483 124.112 669.16 124.112 666.515 124.112 664.445 123.44 662.952 122.096 661.459 120.752 660.563 119.12 660.264 117.2 L683.24 117.2 683.24 115.28 C683.24 112.763 682.867 110.469 682.12 108.4 681.373 106.331 680.328 104.549 678.984 103.056 677.64 101.563 676.008 100.4 674.088 99.568 672.168 98.736 670.056 98.32 667.752 98.32 665.405 98.32 663.251 98.747 661.288 99.6 659.325 100.453 657.64 101.605 656.232 103.056 654.824 104.507 653.725 106.213 652.936 108.176 652.147 110.139 651.752 112.251 651.752 114.512 651.752 116.987 652.168 119.227 653 121.232 653.832 123.237 654.984 124.944 656.456 126.352 657.928 127.76 659.677 128.848 661.704 129.616 663.731 130.384 665.917 130.768 668.264 130.768 Z M667.752 104.976 C669.117 104.976 670.269 105.179 671.208 105.584 672.147 105.989 672.915 106.512 673.512 107.152 674.109 107.792 674.568 108.507 674.888 109.296 675.208 110.085 675.389 110.843 675.432 111.568 L660.2 111.568 C660.285 110.8 660.488 110.021 660.808 109.232 661.128 108.443 661.597 107.739 662.216 107.12 662.835 106.501 663.592 105.989 664.488 105.584 665.384 105.179 666.472 104.976 667.752 104.976 Z M620.52 125.968 C622.141 127.461 624.179 128.635 626.632 129.488 629.085 130.341 631.656 130.768 634.344 130.768 638.653 130.768 641.971 129.84 644.296 127.984 646.621 126.128 647.784 123.771 647.784 120.912 647.784 118.821 647.325 117.157 646.408 115.92 645.491 114.683 644.36 113.701 643.016 112.976 641.672 112.251 640.2 111.707 638.6 111.344 637 110.981 635.528 110.661 634.184 110.384 632.84 110.107 631.709 109.787 630.792 109.424 629.875 109.061 629.416 108.496 629.416 107.728 629.416 106.875 629.853 106.16 630.728 105.584 631.603 105.008 632.787 104.72 634.28 104.72 636.2 104.72 637.971 105.072 639.592 105.776 641.213 106.48 642.493 107.323 643.432 108.304 L646.696 102.544 C645.16 101.307 643.357 100.293 641.288 99.504 639.219 98.715 636.883 98.32 634.28 98.32 632.232 98.32 630.419 98.587 628.84 99.12 627.261 99.653 625.939 100.368 624.872 101.264 623.805 102.16 622.995 103.195 622.44 104.368 621.885 105.541 621.608 106.768 621.608 108.048 621.608 110.053 622.056 111.664 622.952 112.88 623.848 114.096 624.979 115.045 626.344 115.728 627.709 116.411 629.181 116.912 630.76 117.232 632.339 117.552 633.811 117.861 635.176 118.16 636.541 118.459 637.672 118.811 638.568 119.216 639.464 119.621 639.912 120.251 639.912 121.104 639.912 122.085 639.496 122.875 638.664 123.472 637.832 124.069 636.52 124.368 634.728 124.368 633.789 124.368 632.808 124.251 631.784 124.016 630.76 123.781 629.768 123.461 628.808 123.056 627.848 122.651 626.963 122.192 626.152 121.68 625.341 121.168 624.637 120.635 624.04 120.08 Z M615.208 130 L615.208 110.032 C615.208 107.813 614.835 105.957 614.088 104.464 613.341 102.971 612.339 101.765 611.08 100.848 609.821 99.931 608.381 99.28 606.76 98.896 605.139 98.512 603.432 98.32 601.64 98.32 599.208 98.32 596.829 98.704 594.504 99.472 592.179 100.24 590.056 101.477 588.136 103.184 L591.336 108.88 C593.981 106.448 596.947 105.232 600.232 105.232 602.28 105.232 603.923 105.701 605.16 106.64 606.397 107.579 607.016 108.837 607.016 110.416 L607.016 114.32 C605.992 113.083 604.627 112.144 602.92 111.504 601.213 110.864 599.315 110.544 597.224 110.544 595.987 110.544 594.739 110.725 593.48 111.088 592.221 111.451 591.08 112.027 590.056 112.816 589.032 113.605 588.189 114.629 587.528 115.888 586.867 117.147 586.536 118.693 586.536 120.528 586.536 122.235 586.867 123.739 587.528 125.04 588.189 126.341 589.032 127.408 590.056 128.24 591.08 129.072 592.221 129.701 593.48 130.128 594.739 130.555 595.987 130.768 597.224 130.768 599.272 130.768 601.149 130.416 602.856 129.712 604.563 129.008 605.949 128.016 607.016 126.736 L607.016 130 Z M607.016 122.576 C606.333 123.472 605.405 124.144 604.232 124.592 603.059 125.04 601.811 125.264 600.488 125.264 598.867 125.264 597.491 124.869 596.36 124.08 595.229 123.291 594.664 122.149 594.664 120.656 594.664 119.163 595.229 118.011 596.36 117.2 597.491 116.389 598.867 115.984 600.488 115.984 601.811 115.984 603.059 116.219 604.232 116.688 605.405 117.157 606.333 117.84 607.016 118.736 Z M559.08 130 L559.08 126.032 C561.597 129.189 564.776 130.768 568.616 130.768 570.579 130.768 572.392 130.405 574.056 129.68 575.72 128.955 577.16 127.899 578.376 126.512 579.592 125.125 580.552 123.429 581.256 121.424 581.96 119.419 582.312 117.115 582.312 114.512 582.312 111.995 581.971 109.733 581.288 107.728 580.605 105.723 579.656 104.027 578.44 102.64 577.224 101.253 575.773 100.187 574.088 99.44 572.403 98.693 570.579 98.32 568.616 98.32 566.781 98.32 565.043 98.704 563.4 99.472 561.757 100.24 560.317 101.435 559.08 103.056 L559.08 87.312 550.952 87.312 550.952 130 Z M559.08 109.136 C559.805 108.112 560.819 107.259 562.12 106.576 563.421 105.893 564.755 105.552 566.12 105.552 568.467 105.552 570.355 106.373 571.784 108.016 573.213 109.659 573.928 111.824 573.928 114.512 573.928 117.2 573.213 119.376 571.784 121.04 570.355 122.704 568.467 123.536 566.12 123.536 564.755 123.536 563.421 123.205 562.12 122.544 560.819 121.883 559.805 121.061 559.08 120.08 Z M513.64 130.768 C516.072 130.768 518.419 130.405 520.68 129.68 522.941 128.955 524.84 127.888 526.376 126.48 L522.728 121.104 C521.747 122.085 520.467 122.832 518.888 123.344 517.309 123.856 515.859 124.112 514.536 124.112 511.891 124.112 509.821 123.44 508.328 122.096 506.835 120.752 505.939 119.12 505.64 117.2 L528.616 117.2 528.616 115.28 C528.616 112.763 528.243 110.469 527.496 108.4 526.749 106.331 525.704 104.549 524.36 103.056 523.016 101.563 521.384 100.4 519.464 99.568 517.544 98.736 515.432 98.32 513.128 98.32 510.781 98.32 508.627 98.747 506.664 99.6 504.701 100.453 503.016 101.605 501.608 103.056 500.2 104.507 499.101 106.213 498.312 108.176 497.523 110.139 497.128 112.251 497.128 114.512 497.128 116.987 497.544 119.227 498.376 121.232 499.208 123.237 500.36 124.944 501.832 126.352 503.304 127.76 505.053 128.848 507.08 129.616 509.107 130.384 511.293 130.768 513.64 130.768 Z M513.128 104.976 C514.493 104.976 515.645 105.179 516.584 105.584 517.523 105.989 518.291 106.512 518.888 107.152 519.485 107.792 519.944 108.507 520.264 109.296 520.584 110.085 520.765 110.843 520.808 111.568 L505.576 111.568 C505.661 110.8 505.864 110.021 506.184 109.232 506.504 108.443 506.973 107.739 507.592 107.12 508.211 106.501 508.968 105.989 509.864 105.584 510.76 105.179 511.848 104.976 513.128 104.976 Z M473.32 130.768 C477.16 130.768 480.339 129.189 482.856 126.032 L482.856 130 491.048 130 491.048 87.312 482.856 87.312 482.856 103.056 C481.619 101.435 480.179 100.24 478.536 99.472 476.893 98.704 475.155 98.32 473.32 98.32 471.357 98.32 469.533 98.693 467.848 99.44 466.163 100.187 464.712 101.253 463.496 102.64 462.28 104.027 461.331 105.723 460.648 107.728 459.965 109.733 459.624 111.995 459.624 114.512 459.624 117.115 459.976 119.419 460.68 121.424 461.384 123.429 462.344 125.125 463.56 126.512 464.776 127.899 466.227 128.955 467.912 129.68 469.597 130.405 471.4 130.768 473.32 130.768 Z M468.008 114.512 C468.008 111.824 468.733 109.659 470.184 108.016 471.635 106.373 473.533 105.552 475.88 105.552 477.245 105.552 478.579 105.883 479.88 106.544 481.181 107.205 482.173 108.048 482.856 109.072 L482.856 120.016 C482.173 121.04 481.181 121.883 479.88 122.544 478.579 123.205 477.245 123.536 475.88 123.536 473.533 123.536 471.635 122.704 470.184 121.04 468.733 119.376 468.008 117.2 468.008 114.512 Z M424.296 130.768 C426.728 130.768 429.075 130.405 431.336 129.68 433.597 128.955 435.496 127.888 437.032 126.48 L433.384 121.104 C432.403 122.085 431.123 122.832 429.544 123.344 427.965 123.856 426.515 124.112 425.192 124.112 422.547 124.112 420.477 123.44 418.984 122.096 417.491 120.752 416.595 119.12 416.296 117.2 L439.272 117.2 439.272 115.28 C439.272 112.763 438.899 110.469 438.152 108.4 437.405 106.331 436.36 104.549 435.016 103.056 433.672 101.563 432.04 100.4 430.12 99.568 428.2 98.736 426.088 98.32 423.784 98.32 421.437 98.32 419.283 98.747 417.32 99.6 415.357 100.453 413.672 101.605 412.264 103.056 410.856 104.507 409.757 106.213 408.968 108.176 408.179 110.139 407.784 112.251 407.784 114.512 407.784 116.987 408.2 119.227 409.032 121.232 409.864 123.237 411.016 124.944 412.488 126.352 413.96 127.76 415.709 128.848 417.736 129.616 419.763 130.384 421.949 130.768 424.296 130.768 Z M423.784 104.976 C425.149 104.976 426.301 105.179 427.24 105.584 428.179 105.989 428.947 106.512 429.544 107.152 430.141 107.792 430.6 108.507 430.92 109.296 431.24 110.085 431.421 110.843 431.464 111.568 L416.232 111.568 C416.317 110.8 416.52 110.021 416.84 109.232 417.16 108.443 417.629 107.739 418.248 107.12 418.867 106.501 419.624 105.989 420.52 105.584 421.416 105.179 422.504 104.976 423.784 104.976 Z M372.712 121.04 C372.712 124.069 373.523 126.448 375.144 128.176 376.765 129.904 379.283 130.768 382.696 130.768 385.256 130.768 387.443 130.277 389.256 129.296 391.069 128.315 392.509 127.248 393.576 126.096 L393.576 130 401.704 130 401.704 99.088 393.576 99.088 393.576 120.016 C392.851 120.912 391.891 121.723 390.696 122.448 389.501 123.173 388.115 123.536 386.536 123.536 384.787 123.536 383.4 123.131 382.376 122.32 381.352 121.509 380.84 120.016 380.84 117.84 L380.84 99.088 372.712 99.088 Z M335.656 130 L343.784 130 343.784 109.136 C344.509 108.24 345.459 107.419 346.632 106.672 347.805 105.925 349.203 105.552 350.824 105.552 352.573 105.552 353.96 105.968 354.984 106.8 356.008 107.632 356.52 109.136 356.52 111.312 L356.52 130 364.712 130 364.712 108.176 C364.712 105.147 363.891 102.747 362.248 100.976 360.605 99.205 358.056 98.32 354.6 98.32 352.083 98.32 349.896 98.821 348.04 99.824 346.184 100.827 344.765 101.904 343.784 103.056 L343.784 99.088 335.656 99.088 Z M314.792 130.768 C317.224 130.768 319.571 130.405 321.832 129.68 324.093 128.955 325.992 127.888 327.528 126.48 L323.88 121.104 C322.899 122.085 321.619 122.832 320.04 123.344 318.461 123.856 317.011 124.112 315.688 124.112 313.043 124.112 310.973 123.44 309.48 122.096 307.987 120.752 307.091 119.12 306.792 117.2 L329.768 117.2 329.768 115.28 C329.768 112.763 329.395 110.469 328.648 108.4 327.901 106.331 326.856 104.549 325.512 103.056 324.168 101.563 322.536 100.4 320.616 99.568 318.696 98.736 316.584 98.32 314.28 98.32 311.933 98.32 309.779 98.747 307.816 99.6 305.853 100.453 304.168 101.605 302.76 103.056 301.352 104.507 300.253 106.213 299.464 108.176 298.675 110.139 298.28 112.251 298.28 114.512 298.28 116.987 298.696 119.227 299.528 121.232 300.36 123.237 301.512 124.944 302.984 126.352 304.456 127.76 306.205 128.848 308.232 129.616 310.259 130.384 312.445 130.768 314.792 130.768 Z M314.28 104.976 C315.645 104.976 316.797 105.179 317.736 105.584 318.675 105.989 319.443 106.512 320.04 107.152 320.637 107.792 321.096 108.507 321.416 109.296 321.736 110.085 321.917 110.843 321.96 111.568 L306.728 111.568 C306.813 110.8 307.016 110.021 307.336 109.232 307.656 108.443 308.125 107.739 308.744 107.12 309.363 106.501 310.12 105.989 311.016 105.584 311.912 105.179 313 104.976 314.28 104.976 Z M275.432 130 L284.2 130 296.616 99.088 287.912 99.088 279.784 120.592 271.72 99.088 263.016 99.088 Z M246.568 130.768 C249 130.768 251.347 130.405 253.608 129.68 255.869 128.955 257.768 127.888 259.304 126.48 L255.656 121.104 C254.675 122.085 253.395 122.832 251.816 123.344 250.237 123.856 248.787 124.112 247.464 124.112 244.819 124.112 242.749 123.44 241.256 122.096 239.763 120.752 238.867 119.12 238.568 117.2 L261.544 117.2 261.544 115.28 C261.544 112.763 261.171 110.469 260.424 108.4 259.677 106.331 258.632 104.549 257.288 103.056 255.944 101.563 254.312 100.4 252.392 99.568 250.472 98.736 248.36 98.32 246.056 98.32 243.709 98.32 241.555 98.747 239.592 99.6 237.629 100.453 235.944 101.605 234.536 103.056 233.128 104.507 232.029 106.213 231.24 108.176 230.451 110.139 230.056 112.251 230.056 114.512 230.056 116.987 230.472 119.227 231.304 121.232 232.136 123.237 233.288 124.944 234.76 126.352 236.232 127.76 237.981 128.848 240.008 129.616 242.035 130.384 244.221 130.768 246.568 130.768 Z M246.056 104.976 C247.421 104.976 248.573 105.179 249.512 105.584 250.451 105.989 251.219 106.512 251.816 107.152 252.413 107.792 252.872 108.507 253.192 109.296 253.512 110.085 253.693 110.843 253.736 111.568 L238.504 111.568 C238.589 110.8 238.792 110.021 239.112 109.232 239.432 108.443 239.901 107.739 240.52 107.12 241.139 106.501 241.896 105.989 242.792 105.584 243.688 105.179 244.776 104.976 246.056 104.976 Z M217.128 130 L217.128 109.584 C217.811 108.603 218.909 107.771 220.424 107.088 221.939 106.405 223.379 106.064 224.744 106.064 225.683 106.064 226.429 106.128 226.984 106.256 L226.984 98.32 C225.064 98.32 223.219 98.8 221.448 99.76 219.677 100.72 218.237 101.883 217.128 103.248 L217.128 99.088 209 99.088 209 130 Z" fill="#ffffff" fill-opacity="1" stroke="none"/>
 </g>
</svg>
