<?xml version="1.0" encoding="utf-8"?>
<!-- Generator: Adobe Illustrator 16.0.0, SVG Export Plug-In . SVG Version: 6.00 Build 0)  -->
<!DOCTYPE svg PUBLIC "-//W3C//DTD SVG 1.1//EN" "http://www.w3.org/Graphics/SVG/1.1/DTD/svg11.dtd">
<svg version="1.1" id="Layer_1" xmlns="http://www.w3.org/2000/svg" xmlns:xlink="http://www.w3.org/1999/xlink" x="0px" y="0px"
	 width="741.032px" height="151.559px" viewBox="0 0 741.032 151.559" style="enable-background:new 0 0 741.032 151.559;"
	 xml:space="preserve">
<g>
	<defs>
		<rect id="SVGID_1_" width="741.032" height="151.559"/>
	</defs>
	<clipPath id="SVGID_2_">
		<use xlink:href="#SVGID_1_"  style="overflow:visible;"/>
	</clipPath>
	<path style="clip-path:url(#SVGID_2_);fill:#FFFFFF;" d="M713.44,128.024h-8.067v-18.4c0-4.222-2.205-5.672-5.61-5.672
		c-3.152,0-5.549,1.763-6.934,3.53v20.542h-8.007V97.586h8.007v3.907c1.953-2.268,5.735-4.662,10.651-4.662
		c6.746,0,9.96,3.78,9.96,9.704V128.024z"/>
	<path style="clip-path:url(#SVGID_2_);fill:#FFFFFF;" d="M641.982,128.024h-8.066v-19.22c0-2.836-1.262-4.853-4.539-4.853
		c-2.838,0-5.17,1.889-6.305,3.53v20.542h-8.067v-19.22c0-2.836-1.26-4.853-4.539-4.853c-2.773,0-5.105,1.889-6.303,3.53v20.542
		h-8.007V97.586h8.007v3.907c1.323-1.764,5.294-4.662,9.96-4.662c4.474,0,7.374,2.08,8.445,5.482
		c1.766-2.71,5.799-5.482,10.465-5.482c5.609,0,8.949,2.962,8.949,9.2V128.024z"/>
	<path style="clip-path:url(#SVGID_2_);fill:#FFFFFF;" d="M679.005,113.53c0-9.892-6.114-16.698-15.254-16.698
		c-9.205,0-15.761,7.12-15.761,15.941c0,9.769,6.998,16.007,16.265,16.007c4.726,0,9.518-1.45,12.543-4.222l-3.593-5.294
		c-1.954,1.892-5.484,2.962-8.068,2.962c-5.168,0-8.194-3.088-8.762-6.807h22.63V113.53z M656.312,109.875
		c0.313-3.025,2.458-6.489,7.438-6.489c5.293,0,7.312,3.59,7.563,6.489H656.312z"/>
	<path style="clip-path:url(#SVGID_2_);fill-rule:evenodd;clip-rule:evenodd;fill:#CAA54F;" d="M75.78,151.559
		c41.852,0,75.78-33.926,75.78-75.779C151.56,33.927,117.632,0,75.78,0S0,33.927,0,75.78C0,117.633,33.928,151.559,75.78,151.559"/>
	<polygon style="clip-path:url(#SVGID_2_);fill-rule:evenodd;clip-rule:evenodd;" points="186.539,2.445 419.558,2.445 
		419.283,70.891 741.032,70.891 741.032,149.115 186.539,149.115 	"/>
	<path style="clip-path:url(#SVGID_2_);fill:#FFFFFF;" d="M711.649,126.864h-7.889v-17.992c0-4.128-2.157-5.546-5.485-5.546
		c-3.082,0-5.425,1.725-6.779,3.452v20.086h-7.828V97.103h7.828v3.819c1.91-2.217,5.607-4.559,10.416-4.559
		c6.595,0,9.737,3.697,9.737,9.489V126.864z"/>
	<path style="clip-path:url(#SVGID_2_);fill:#FFFFFF;" d="M641.778,126.864h-7.89v-18.793c0-2.773-1.231-4.745-4.437-4.745
		c-2.775,0-5.056,1.848-6.163,3.452v20.086h-7.891v-18.793c0-2.773-1.23-4.745-4.437-4.745c-2.712,0-4.993,1.848-6.163,3.452v20.086
		h-7.829V97.103h7.829v3.819c1.293-1.725,5.175-4.559,9.738-4.559c4.375,0,7.209,2.034,8.259,5.361
		c1.724-2.65,5.669-5.361,10.23-5.361c5.485,0,8.752,2.896,8.752,8.996V126.864z"/>
	<path style="clip-path:url(#SVGID_2_);fill:#FFFFFF;" d="M589.184,126.864h-7.889v-18.793c0-2.773-1.231-4.745-4.438-4.745
		c-2.774,0-5.055,1.848-6.164,3.452v20.086h-7.889v-18.793c0-2.773-1.234-4.745-4.437-4.745c-2.712,0-4.993,1.848-6.164,3.452
		v20.086h-7.829V97.103h7.829v3.819c1.294-1.725,5.176-4.559,9.738-4.559c4.375,0,7.21,2.034,8.26,5.361
		c1.724-2.65,5.669-5.361,10.23-5.361c5.485,0,8.751,2.896,8.751,8.996V126.864z"/>
	<polygon style="clip-path:url(#SVGID_2_);fill:#FFFFFF;" points="505.383,126.864 495.583,126.864 487.695,115.405 
		484.119,119.223 484.119,126.864 476.291,126.864 476.291,85.767 484.119,85.767 484.119,110.351 495.4,97.103 505.013,97.103 
		493.242,110.598 	"/>
	<path style="clip-path:url(#SVGID_2_);fill:#FFFFFF;" d="M468.568,126.864h-7.889v-17.992c0-4.128-2.159-5.546-5.485-5.546
		c-3.082,0-5.425,1.725-6.779,3.452v20.086h-7.828V97.103h7.828v3.819c1.909-2.217,5.607-4.559,10.415-4.559
		c6.594,0,9.738,3.697,9.738,9.489V126.864z"/>
	<rect x="424.972" y="97.103" style="clip-path:url(#SVGID_2_);fill:#FFFFFF;" width="7.828" height="29.761"/>
	<path style="clip-path:url(#SVGID_2_);fill:#FFFFFF;" d="M428.855,93.898c2.588,0,4.686-2.095,4.686-4.682
		c0-2.588-2.098-4.621-4.686-4.621c-2.525,0-4.623,2.033-4.623,4.621C424.232,91.803,426.33,93.898,428.855,93.898"/>
	<path style="clip-path:url(#SVGID_2_);fill:#FFFFFF;" d="M347.008,126.864h-7.889v-17.992c0-4.128-2.157-5.546-5.486-5.546
		c-3.082,0-5.424,1.725-6.78,3.452v20.086h-7.827V97.103h7.827v3.819c1.911-2.217,5.609-4.559,10.417-4.559
		c6.594,0,9.738,3.697,9.738,9.489V126.864z"/>
	<path style="clip-path:url(#SVGID_2_);fill:#FFFFFF;" d="M311.24,126.864h-7.828v-3.758c-2.034,2.217-5.609,4.497-10.478,4.497
		c-6.533,0-9.615-3.573-9.615-9.365V97.103h7.828v18.055c0,4.128,2.157,5.483,5.485,5.483c3.021,0,5.424-1.664,6.78-3.39V97.103
		h7.828V126.864z"/>
	<path style="clip-path:url(#SVGID_2_);fill:#FFFFFF;" d="M268.938,126.864h-7.828V97.103h7.828v4.006
		c2.157-2.588,5.794-4.745,9.492-4.745v7.641c-0.555-0.123-1.233-0.186-2.158-0.186c-2.588,0-6.04,1.479-7.334,3.389V126.864z"/>
	<path style="clip-path:url(#SVGID_2_);fill:#FFFFFF;" d="M236.869,127.603c-12.08,0-21.942-8.317-21.942-21.257
		c0-13.001,9.862-21.259,21.942-21.259c8.506,0,13.868,4.312,16.95,9.183l-7.211,3.942c-1.911-2.896-5.425-5.36-9.739-5.36
		c-7.52,0-12.943,5.729-12.943,13.494c0,7.764,5.423,13.493,12.943,13.493c3.637,0,7.026-1.602,8.69-3.144v-4.928h-10.847v-7.641
		h19.6v15.774C250.12,124.583,244.265,127.603,236.869,127.603"/>
	<path style="clip-path:url(#SVGID_2_);fill:#FFFFFF;" d="M375.194,85.767v15.155c-2.343-3.079-5.671-4.559-9.184-4.559
		c-7.581,0-13.19,5.914-13.19,15.589c0,9.981,5.732,15.65,13.19,15.65c3.636,0,6.841-1.602,9.184-4.561v3.821h7.89V85.767H375.194z
		 M375.194,117.251c-1.295,1.972-4.13,3.39-6.719,3.39c-4.499,0-7.581-3.513-7.581-8.688c0-5.115,3.082-8.627,7.581-8.627
		c2.589,0,5.424,1.418,6.719,3.389V117.251z"/>
	<path style="clip-path:url(#SVGID_2_);fill:#FFFFFF;" d="M419.283,112.692c0-9.673-5.979-16.327-14.916-16.327
		c-8.999,0-15.409,6.962-15.409,15.588c0,9.551,6.842,15.649,15.903,15.649c4.622,0,9.306-1.418,12.263-4.128l-3.511-5.176
		c-1.912,1.851-5.363,2.896-7.891,2.896c-5.054,0-8.013-3.02-8.566-6.655h22.127V112.692z M397.094,109.119
		c0.31-2.958,2.404-6.345,7.273-6.345c5.177,0,7.149,3.51,7.396,6.345H397.094z"/>
	<path style="clip-path:url(#SVGID_2_);fill:#FFFFFF;" d="M522.723,96.364c-9.802,0-15.717,7.148-15.717,15.589
		c0,8.441,5.915,15.65,15.717,15.65c9.86,0,15.778-7.209,15.778-15.65C538.501,103.512,532.583,96.364,522.723,96.364
		 M522.723,120.641c-4.869,0-7.582-4.005-7.582-8.688c0-4.622,2.713-8.627,7.582-8.627c4.931,0,7.644,4.005,7.644,8.627
		C530.366,116.636,527.653,120.641,522.723,120.641"/>
	<path style="clip-path:url(#SVGID_2_);fill:#FFFFFF;" d="M677.978,112.692c0-9.673-5.978-16.327-14.915-16.327
		c-9,0-15.41,6.962-15.41,15.588c0,9.551,6.843,15.649,15.904,15.649c4.621,0,9.306-1.418,12.265-4.128l-3.514-5.176
		c-1.911,1.851-5.363,2.896-7.89,2.896c-5.054,0-8.013-3.02-8.566-6.655h22.126V112.692z M655.79,109.119
		c0.308-2.958,2.403-6.345,7.272-6.345c5.177,0,7.149,3.51,7.396,6.345H655.79z"/>
	<polygon style="clip-path:url(#SVGID_2_);fill:#FFFFFF;" points="228.076,62.212 212.143,20.86 222.124,20.86 233.593,52.603 
		245.062,20.86 255.043,20.86 239.111,62.212 	"/>
	<path style="clip-path:url(#SVGID_2_);fill:#FFFFFF;" d="M253.806,47.209c0-8.68,6.448-15.686,15.499-15.686
		c8.99,0,15.003,6.696,15.003,16.429v1.86h-22.256c0.558,3.658,3.533,6.696,8.617,6.696c2.542,0,6.013-1.054,7.935-2.914
		l3.534,5.208c-2.976,2.728-7.687,4.154-12.337,4.154C260.688,62.956,253.806,56.818,253.806,47.209 M269.305,37.971
		c-4.897,0-7.005,3.41-7.315,6.386h14.754C276.497,41.505,274.513,37.971,269.305,37.971"/>
	<path style="clip-path:url(#SVGID_2_);fill:#FFFFFF;" d="M289.933,62.212V32.268h7.874v4.029c2.169-2.604,5.827-4.773,9.547-4.773
		v7.688c-0.558-0.125-1.24-0.187-2.17-0.187c-2.604,0-6.076,1.488-7.377,3.41v19.777H289.933z"/>
	<path style="clip-path:url(#SVGID_2_);fill:#FFFFFF;" d="M310.014,47.209c0-8.68,6.448-15.686,15.499-15.686
		c8.99,0,15.003,6.696,15.003,16.429v1.86h-22.256c0.558,3.658,3.533,6.696,8.617,6.696c2.542,0,6.013-1.054,7.936-2.914
		l3.533,5.208c-2.976,2.728-7.687,4.154-12.337,4.154C316.896,62.956,310.014,56.818,310.014,47.209 M325.513,37.971
		c-4.897,0-7.005,3.41-7.315,6.386h14.754C332.705,41.505,330.721,37.971,325.513,37.971"/>
	<path style="clip-path:url(#SVGID_2_);fill:#FFFFFF;" d="M345.291,24.332c0-2.604,2.108-4.65,4.65-4.65
		c2.604,0,4.712,2.046,4.712,4.65s-2.108,4.712-4.712,4.712C347.399,29.044,345.291,26.936,345.291,24.332 M346.035,32.267h7.874
		v29.944h-7.874V32.267z"/>
	<path style="clip-path:url(#SVGID_2_);fill:#FFFFFF;" d="M381.676,62.212V44.109c0-4.154-2.17-5.58-5.518-5.58
		c-3.1,0-5.455,1.736-6.819,3.472v20.211h-7.872V32.268h7.872v3.843c1.922-2.232,5.643-4.587,10.479-4.587
		c6.633,0,9.795,3.72,9.795,9.547v21.141H381.676z"/>
</g>
</svg>
