<?xml version="1.0" encoding="UTF-8"?>
<svg width="742px" height="152px" viewBox="0 0 742 152" xmlns="http://www.w3.org/2000/svg" xmlns:xlink="http://www.w3.org/1999/xlink" version="1.1">
 <!-- Generated by Pixelmator Pro 1.8 -->
 <g id="group">
  <path id="Path" d="M75.78 151.559 C117.632 151.559 151.56 117.633 151.56 75.78 151.56 33.927 117.632 0 75.78 0 33.928 0 0 33.927 0 75.78 0 117.633 33.928 151.559 75.78 151.559" fill="#caa54f" fill-opacity="1" stroke="none"/>
  <path id="Path-1" d="M186.539 2.445 L568.375 2.367 567.828 69.898 613.009 70.516 613.009 148.74 186.539 149.115 Z" fill="#000000" fill-opacity="1" stroke="none"/>
  <path id="basic-income" d="M569.904 131.883 C572.336 131.883 574.683 131.52 576.944 130.795 579.206 130.07 581.104 129.003 582.64 127.595 L578.992 122.219 C578.011 123.2 576.731 123.947 575.152 124.459 573.574 124.971 572.123 125.227 570.8 125.227 568.155 125.227 566.086 124.555 564.592 123.211 563.099 121.867 562.203 120.235 561.904 118.315 L584.88 118.315 584.88 116.395 C584.88 113.878 584.507 111.584 583.76 109.515 583.014 107.446 581.968 105.664 580.624 104.171 579.28 102.678 577.648 101.515 575.728 100.683 573.808 99.851 571.696 99.435 569.392 99.435 567.046 99.435 564.891 99.862 562.928 100.715 560.966 101.568 559.28 102.72 557.872 104.171 556.464 105.622 555.366 107.328 554.576 109.291 553.787 111.254 553.392 113.366 553.392 115.627 553.392 118.102 553.808 120.342 554.64 122.347 555.472 124.352 556.624 126.059 558.096 127.467 559.568 128.875 561.318 129.963 563.344 130.731 565.371 131.499 567.558 131.883 569.904 131.883 Z M569.392 106.091 C570.758 106.091 571.91 106.294 572.848 106.699 573.787 107.104 574.555 107.627 575.152 108.267 575.75 108.907 576.208 109.622 576.528 110.411 576.848 111.2 577.03 111.958 577.072 112.683 L561.84 112.683 C561.926 111.915 562.128 111.136 562.448 110.347 562.768 109.558 563.238 108.854 563.856 108.235 564.475 107.616 565.232 107.104 566.128 106.699 567.024 106.294 568.112 106.091 569.392 106.091 Z M534.512 106.667 C536.176 106.667 537.36 107.126 538.064 108.043 538.768 108.96 539.12 110.144 539.12 111.595 L539.12 131.115 547.312 131.115 547.312 108.779 C547.312 105.579 546.512 103.222 544.912 101.707 543.312 100.192 541.083 99.435 538.224 99.435 537.03 99.435 535.888 99.595 534.8 99.915 533.712 100.235 532.71 100.662 531.792 101.195 530.875 101.728 530.064 102.326 529.36 102.987 528.656 103.648 528.07 104.32 527.6 105.003 527.046 103.254 526.054 101.888 524.624 100.907 523.195 99.926 521.328 99.435 519.024 99.435 517.83 99.435 516.699 99.595 515.632 99.915 514.566 100.235 513.584 100.64 512.688 101.131 511.792 101.622 511.024 102.134 510.384 102.667 509.744 103.2 509.254 103.702 508.912 104.171 L508.912 100.203 500.784 100.203 500.784 131.115 508.912 131.115 508.912 110.251 C509.51 109.398 510.374 108.587 511.504 107.819 512.635 107.051 513.904 106.667 515.312 106.667 516.976 106.667 518.16 107.126 518.864 108.043 519.568 108.96 519.92 110.144 519.92 111.595 L519.92 131.115 528.112 131.115 528.112 110.251 C528.71 109.398 529.563 108.587 530.672 107.819 531.782 107.051 533.062 106.667 534.512 106.667 Z M478.32 131.883 C480.88 131.883 483.174 131.446 485.2 130.571 487.227 129.696 488.944 128.523 490.352 127.051 491.76 125.579 492.838 123.851 493.584 121.867 494.331 119.883 494.704 117.803 494.704 115.627 494.704 113.451 494.331 111.382 493.584 109.419 492.838 107.456 491.76 105.739 490.352 104.267 488.944 102.795 487.227 101.622 485.2 100.747 483.174 99.872 480.88 99.435 478.32 99.435 475.76 99.435 473.478 99.872 471.472 100.747 469.467 101.622 467.76 102.795 466.352 104.267 464.944 105.739 463.867 107.456 463.12 109.419 462.374 111.382 462 113.451 462 115.627 462 117.803 462.374 119.883 463.12 121.867 463.867 123.851 464.944 125.579 466.352 127.051 467.76 128.523 469.467 129.696 471.472 130.571 473.478 131.446 475.76 131.883 478.32 131.883 Z M478.32 106.667 C479.6 106.667 480.731 106.912 481.712 107.403 482.694 107.894 483.526 108.544 484.208 109.355 484.891 110.166 485.403 111.115 485.744 112.203 486.086 113.291 486.256 114.432 486.256 115.627 486.256 118.059 485.574 120.171 484.208 121.963 482.843 123.755 480.88 124.651 478.32 124.651 477.04 124.651 475.92 124.406 474.96 123.915 474 123.424 473.179 122.774 472.496 121.963 471.814 121.152 471.302 120.192 470.96 119.083 470.619 117.974 470.448 116.822 470.448 115.627 470.448 114.432 470.619 113.291 470.96 112.203 471.302 111.115 471.814 110.166 472.496 109.355 473.179 108.544 474 107.894 474.96 107.403 475.92 106.912 477.04 106.667 478.32 106.667 Z M446.448 131.883 C449.648 131.883 452.23 131.296 454.192 130.123 456.155 128.95 457.648 127.659 458.672 126.251 L453.36 121.259 C452.635 122.326 451.718 123.158 450.608 123.755 449.499 124.352 448.24 124.651 446.832 124.651 444.358 124.651 442.342 123.819 440.784 122.155 439.227 120.491 438.448 118.315 438.448 115.627 438.448 112.939 439.227 110.774 440.784 109.131 442.342 107.488 444.358 106.667 446.832 106.667 449.691 106.667 451.867 107.776 453.36 109.995 L458.672 105.003 C457.648 103.595 456.155 102.315 454.192 101.163 452.23 100.011 449.648 99.435 446.448 99.435 444.102 99.435 441.926 99.83 439.92 100.619 437.915 101.408 436.176 102.528 434.704 103.979 433.232 105.43 432.091 107.136 431.28 109.099 430.47 111.062 430.064 113.238 430.064 115.627 430.064 118.016 430.47 120.203 431.28 122.187 432.091 124.171 433.232 125.888 434.704 127.339 436.176 128.79 437.915 129.91 439.92 130.699 441.926 131.488 444.102 131.883 446.448 131.883 Z M394.992 131.115 L403.12 131.115 403.12 110.251 C403.846 109.355 404.795 108.534 405.968 107.787 407.142 107.04 408.539 106.667 410.16 106.667 411.91 106.667 413.296 107.083 414.32 107.915 415.344 108.747 415.856 110.251 415.856 112.427 L415.856 131.115 424.048 131.115 424.048 109.291 C424.048 106.262 423.227 103.862 421.584 102.091 419.942 100.32 417.392 99.435 413.936 99.435 411.419 99.435 409.232 99.936 407.376 100.939 405.52 101.942 404.102 103.019 403.12 104.171 L403.12 100.203 394.992 100.203 Z M378.8 131.115 L386.928 131.115 386.928 100.203 378.8 100.203 Z M378.032 92.011 C378.032 93.376 378.502 94.528 379.44 95.467 380.379 96.406 381.51 96.875 382.832 96.875 384.198 96.875 385.35 96.406 386.288 95.467 387.227 94.528 387.696 93.376 387.696 92.011 387.696 90.646 387.227 89.504 386.288 88.587 385.35 87.67 384.198 87.211 382.832 87.211 381.51 87.211 380.379 87.67 379.44 88.587 378.502 89.504 378.032 90.646 378.032 92.011 Z M344.816 131.883 C348.016 131.883 350.598 131.296 352.56 130.123 354.523 128.95 356.016 127.659 357.04 126.251 L351.728 121.259 C351.003 122.326 350.086 123.158 348.976 123.755 347.867 124.352 346.608 124.651 345.2 124.651 342.726 124.651 340.71 123.819 339.152 122.155 337.595 120.491 336.816 118.315 336.816 115.627 336.816 112.939 337.595 110.774 339.152 109.131 340.71 107.488 342.726 106.667 345.2 106.667 348.059 106.667 350.235 107.776 351.728 109.995 L357.04 105.003 C356.016 103.595 354.523 102.315 352.56 101.163 350.598 100.011 348.016 99.435 344.816 99.435 342.47 99.435 340.294 99.83 338.288 100.619 336.283 101.408 334.544 102.528 333.072 103.979 331.6 105.43 330.459 107.136 329.648 109.099 328.838 111.062 328.432 113.238 328.432 115.627 328.432 118.016 328.838 120.203 329.648 122.187 330.459 124.171 331.6 125.888 333.072 127.339 334.544 128.79 336.283 129.91 338.288 130.699 340.294 131.488 342.47 131.883 344.816 131.883 Z M314.224 131.115 L322.352 131.115 322.352 100.203 314.224 100.203 Z M313.456 92.011 C313.456 93.376 313.926 94.528 314.864 95.467 315.803 96.406 316.934 96.875 318.256 96.875 319.622 96.875 320.774 96.406 321.712 95.467 322.651 94.528 323.12 93.376 323.12 92.011 323.12 90.646 322.651 89.504 321.712 88.587 320.774 87.67 319.622 87.211 318.256 87.211 316.934 87.211 315.803 87.67 314.864 88.587 313.926 89.504 313.456 90.646 313.456 92.011 Z M281.008 127.083 C282.63 128.576 284.667 129.75 287.12 130.603 289.574 131.456 292.144 131.883 294.832 131.883 299.142 131.883 302.459 130.955 304.784 129.099 307.11 127.243 308.272 124.886 308.272 122.027 308.272 119.936 307.814 118.272 306.896 117.035 305.979 115.798 304.848 114.816 303.504 114.091 302.16 113.366 300.688 112.822 299.088 112.459 297.488 112.096 296.016 111.776 294.672 111.499 293.328 111.222 292.198 110.902 291.28 110.539 290.363 110.176 289.904 109.611 289.904 108.843 289.904 107.99 290.342 107.275 291.216 106.699 292.091 106.123 293.275 105.835 294.768 105.835 296.688 105.835 298.459 106.187 300.08 106.891 301.702 107.595 302.982 108.438 303.92 109.419 L307.184 103.659 C305.648 102.422 303.846 101.408 301.776 100.619 299.707 99.83 297.371 99.435 294.768 99.435 292.72 99.435 290.907 99.702 289.328 100.235 287.75 100.768 286.427 101.483 285.36 102.379 284.294 103.275 283.483 104.31 282.928 105.483 282.374 106.656 282.096 107.883 282.096 109.163 282.096 111.168 282.544 112.779 283.44 113.995 284.336 115.211 285.467 116.16 286.832 116.843 288.198 117.526 289.67 118.027 291.248 118.347 292.827 118.667 294.299 118.976 295.664 119.275 297.03 119.574 298.16 119.926 299.056 120.331 299.952 120.736 300.4 121.366 300.4 122.219 300.4 123.2 299.984 123.99 299.152 124.587 298.32 125.184 297.008 125.483 295.216 125.483 294.278 125.483 293.296 125.366 292.272 125.131 291.248 124.896 290.256 124.576 289.296 124.171 288.336 123.766 287.451 123.307 286.64 122.795 285.83 122.283 285.126 121.75 284.528 121.195 Z M275.696 131.115 L275.696 111.147 C275.696 108.928 275.323 107.072 274.576 105.579 273.83 104.086 272.827 102.88 271.568 101.963 270.31 101.046 268.87 100.395 267.248 100.011 265.627 99.627 263.92 99.435 262.128 99.435 259.696 99.435 257.318 99.819 254.992 100.587 252.667 101.355 250.544 102.592 248.624 104.299 L251.824 109.995 C254.47 107.563 257.435 106.347 260.72 106.347 262.768 106.347 264.411 106.816 265.648 107.755 266.886 108.694 267.504 109.952 267.504 111.531 L267.504 115.435 C266.48 114.198 265.115 113.259 263.408 112.619 261.702 111.979 259.803 111.659 257.712 111.659 256.475 111.659 255.227 111.84 253.968 112.203 252.71 112.566 251.568 113.142 250.544 113.931 249.52 114.72 248.678 115.744 248.016 117.003 247.355 118.262 247.024 119.808 247.024 121.643 247.024 123.35 247.355 124.854 248.016 126.155 248.678 127.456 249.52 128.523 250.544 129.355 251.568 130.187 252.71 130.816 253.968 131.243 255.227 131.67 256.475 131.883 257.712 131.883 259.76 131.883 261.638 131.531 263.344 130.827 265.051 130.123 266.438 129.131 267.504 127.851 L267.504 131.115 Z M267.504 123.691 C266.822 124.587 265.894 125.259 264.72 125.707 263.547 126.155 262.299 126.379 260.976 126.379 259.355 126.379 257.979 125.984 256.848 125.195 255.718 124.406 255.152 123.264 255.152 121.771 255.152 120.278 255.718 119.126 256.848 118.315 257.979 117.504 259.355 117.099 260.976 117.099 262.299 117.099 263.547 117.334 264.72 117.803 265.894 118.272 266.822 118.955 267.504 119.851 Z M219.568 131.115 L219.568 127.147 C222.086 130.304 225.264 131.883 229.104 131.883 231.067 131.883 232.88 131.52 234.544 130.795 236.208 130.07 237.648 129.014 238.864 127.627 240.08 126.24 241.04 124.544 241.744 122.539 242.448 120.534 242.8 118.23 242.8 115.627 242.8 113.11 242.459 110.848 241.776 108.843 241.094 106.838 240.144 105.142 238.928 103.755 237.712 102.368 236.262 101.302 234.576 100.555 232.891 99.808 231.067 99.435 229.104 99.435 227.27 99.435 225.531 99.819 223.888 100.587 222.246 101.355 220.806 102.55 219.568 104.171 L219.568 88.427 211.44 88.427 211.44 131.115 Z M219.568 110.251 C220.294 109.227 221.307 108.374 222.608 107.691 223.91 107.008 225.243 106.667 226.608 106.667 228.955 106.667 230.843 107.488 232.272 109.131 233.702 110.774 234.416 112.939 234.416 115.627 234.416 118.315 233.702 120.491 232.272 122.155 230.843 123.819 228.955 124.651 226.608 124.651 225.243 124.651 223.91 124.32 222.608 123.659 221.307 122.998 220.294 122.176 219.568 121.195 Z" fill="#ffffff" fill-opacity="1" stroke="none"/>
  <path id="Association" d="M512.424 59 L520.552 59 520.552 38.136 C521.277 37.24 522.227 36.419 523.4 35.672 524.573 34.925 525.971 34.552 527.592 34.552 529.341 34.552 530.728 34.968 531.752 35.8 532.776 36.632 533.288 38.136 533.288 40.312 L533.288 59 541.48 59 541.48 37.176 C541.48 34.147 540.659 31.747 539.016 29.976 537.373 28.205 534.824 27.32 531.368 27.32 528.851 27.32 526.664 27.821 524.808 28.824 522.952 29.827 521.533 30.904 520.552 32.056 L520.552 28.088 512.424 28.088 Z M489.96 59.768 C492.52 59.768 494.813 59.331 496.84 58.456 498.867 57.581 500.584 56.408 501.992 54.936 503.4 53.464 504.477 51.736 505.224 49.752 505.971 47.768 506.344 45.688 506.344 43.512 506.344 41.336 505.971 39.267 505.224 37.304 504.477 35.341 503.4 33.624 501.992 32.152 500.584 30.68 498.867 29.507 496.84 28.632 494.813 27.757 492.52 27.32 489.96 27.32 487.4 27.32 485.117 27.757 483.112 28.632 481.107 29.507 479.4 30.68 477.992 32.152 476.584 33.624 475.507 35.341 474.76 37.304 474.013 39.267 473.64 41.336 473.64 43.512 473.64 45.688 474.013 47.768 474.76 49.752 475.507 51.736 476.584 53.464 477.992 54.936 479.4 56.408 481.107 57.581 483.112 58.456 485.117 59.331 487.4 59.768 489.96 59.768 Z M489.96 34.552 C491.24 34.552 492.371 34.797 493.352 35.288 494.333 35.779 495.165 36.429 495.848 37.24 496.531 38.051 497.043 39 497.384 40.088 497.725 41.176 497.896 42.317 497.896 43.512 497.896 45.944 497.213 48.056 495.848 49.848 494.483 51.64 492.52 52.536 489.96 52.536 488.68 52.536 487.56 52.291 486.6 51.8 485.64 51.309 484.819 50.659 484.136 49.848 483.453 49.037 482.941 48.077 482.6 46.968 482.259 45.859 482.088 44.707 482.088 43.512 482.088 42.317 482.259 41.176 482.6 40.088 482.941 39 483.453 38.051 484.136 37.24 484.819 36.429 485.64 35.779 486.6 35.288 487.56 34.797 488.68 34.552 489.96 34.552 Z M459.432 59 L467.56 59 467.56 28.088 459.432 28.088 Z M458.664 19.896 C458.664 21.261 459.133 22.413 460.072 23.352 461.011 24.291 462.141 24.76 463.464 24.76 464.829 24.76 465.981 24.291 466.92 23.352 467.859 22.413 468.328 21.261 468.328 19.896 468.328 18.531 467.859 17.389 466.92 16.472 465.981 15.555 464.829 15.096 463.464 15.096 462.141 15.096 461.011 15.555 460.072 16.472 459.133 17.389 458.664 18.531 458.664 19.896 Z M439.464 35.192 L439.464 51.256 C439.464 56.931 442.365 59.768 448.168 59.768 449.875 59.768 451.283 59.576 452.392 59.192 453.501 58.808 454.355 58.339 454.952 57.784 L453.224 51.576 C453.011 51.832 452.637 52.056 452.104 52.248 451.571 52.44 451.005 52.536 450.408 52.536 449.512 52.536 448.819 52.205 448.328 51.544 447.837 50.883 447.592 50.061 447.592 49.08 L447.592 35.192 453.864 35.192 453.864 28.088 447.592 28.088 447.592 19.64 439.464 19.64 439.464 28.088 434.344 28.088 434.344 35.192 Z M429.8 59 L429.8 39.032 C429.8 36.813 429.427 34.957 428.68 33.464 427.933 31.971 426.931 30.765 425.672 29.848 424.413 28.931 422.973 28.28 421.352 27.896 419.731 27.512 418.024 27.32 416.232 27.32 413.8 27.32 411.421 27.704 409.096 28.472 406.771 29.24 404.648 30.477 402.728 32.184 L405.928 37.88 C408.573 35.448 411.539 34.232 414.824 34.232 416.872 34.232 418.515 34.701 419.752 35.64 420.989 36.579 421.608 37.837 421.608 39.416 L421.608 43.32 C420.584 42.083 419.219 41.144 417.512 40.504 415.805 39.864 413.907 39.544 411.816 39.544 410.579 39.544 409.331 39.725 408.072 40.088 406.813 40.451 405.672 41.027 404.648 41.816 403.624 42.605 402.781 43.629 402.12 44.888 401.459 46.147 401.128 47.693 401.128 49.528 401.128 51.235 401.459 52.739 402.12 54.04 402.781 55.341 403.624 56.408 404.648 57.24 405.672 58.072 406.813 58.701 408.072 59.128 409.331 59.555 410.579 59.768 411.816 59.768 413.864 59.768 415.741 59.416 417.448 58.712 419.155 58.008 420.541 57.016 421.608 55.736 L421.608 59 Z M421.608 51.576 C420.925 52.472 419.997 53.144 418.824 53.592 417.651 54.04 416.403 54.264 415.08 54.264 413.459 54.264 412.083 53.869 410.952 53.08 409.821 52.291 409.256 51.149 409.256 49.656 409.256 48.163 409.821 47.011 410.952 46.2 412.083 45.389 413.459 44.984 415.08 44.984 416.403 44.984 417.651 45.219 418.824 45.688 419.997 46.157 420.925 46.84 421.608 47.736 Z M386.856 59 L394.984 59 394.984 28.088 386.856 28.088 Z M386.088 19.896 C386.088 21.261 386.557 22.413 387.496 23.352 388.435 24.291 389.565 24.76 390.888 24.76 392.253 24.76 393.405 24.291 394.344 23.352 395.283 22.413 395.752 21.261 395.752 19.896 395.752 18.531 395.283 17.389 394.344 16.472 393.405 15.555 392.253 15.096 390.888 15.096 389.565 15.096 388.435 15.555 387.496 16.472 386.557 17.389 386.088 18.531 386.088 19.896 Z M369.32 59.768 C372.52 59.768 375.101 59.181 377.064 58.008 379.027 56.835 380.52 55.544 381.544 54.136 L376.232 49.144 C375.507 50.211 374.589 51.043 373.48 51.64 372.371 52.237 371.112 52.536 369.704 52.536 367.229 52.536 365.213 51.704 363.656 50.04 362.099 48.376 361.32 46.2 361.32 43.512 361.32 40.824 362.099 38.659 363.656 37.016 365.213 35.373 367.229 34.552 369.704 34.552 372.563 34.552 374.739 35.661 376.232 37.88 L381.544 32.888 C380.52 31.48 379.027 30.2 377.064 29.048 375.101 27.896 372.52 27.32 369.32 27.32 366.973 27.32 364.797 27.715 362.792 28.504 360.787 29.293 359.048 30.413 357.576 31.864 356.104 33.315 354.963 35.021 354.152 36.984 353.341 38.947 352.936 41.123 352.936 43.512 352.936 45.901 353.341 48.088 354.152 50.072 354.963 52.056 356.104 53.773 357.576 55.224 359.048 56.675 360.787 57.795 362.792 58.584 364.797 59.373 366.973 59.768 369.32 59.768 Z M332.456 59.768 C335.016 59.768 337.309 59.331 339.336 58.456 341.363 57.581 343.08 56.408 344.488 54.936 345.896 53.464 346.973 51.736 347.72 49.752 348.467 47.768 348.84 45.688 348.84 43.512 348.84 41.336 348.467 39.267 347.72 37.304 346.973 35.341 345.896 33.624 344.488 32.152 343.08 30.68 341.363 29.507 339.336 28.632 337.309 27.757 335.016 27.32 332.456 27.32 329.896 27.32 327.613 27.757 325.608 28.632 323.603 29.507 321.896 30.68 320.488 32.152 319.08 33.624 318.003 35.341 317.256 37.304 316.509 39.267 316.136 41.336 316.136 43.512 316.136 45.688 316.509 47.768 317.256 49.752 318.003 51.736 319.08 53.464 320.488 54.936 321.896 56.408 323.603 57.581 325.608 58.456 327.613 59.331 329.896 59.768 332.456 59.768 Z M332.456 34.552 C333.736 34.552 334.867 34.797 335.848 35.288 336.829 35.779 337.661 36.429 338.344 37.24 339.027 38.051 339.539 39 339.88 40.088 340.221 41.176 340.392 42.317 340.392 43.512 340.392 45.944 339.709 48.056 338.344 49.848 336.979 51.64 335.016 52.536 332.456 52.536 331.176 52.536 330.056 52.291 329.096 51.8 328.136 51.309 327.315 50.659 326.632 49.848 325.949 49.037 325.437 48.077 325.096 46.968 324.755 45.859 324.584 44.707 324.584 43.512 324.584 42.317 324.755 41.176 325.096 40.088 325.437 39 325.949 38.051 326.632 37.24 327.315 36.429 328.136 35.779 329.096 35.288 330.056 34.797 331.176 34.552 332.456 34.552 Z M284.904 54.968 C286.525 56.461 288.563 57.635 291.016 58.488 293.469 59.341 296.04 59.768 298.728 59.768 303.037 59.768 306.355 58.84 308.68 56.984 311.005 55.128 312.168 52.771 312.168 49.912 312.168 47.821 311.709 46.157 310.792 44.92 309.875 43.683 308.744 42.701 307.4 41.976 306.056 41.251 304.584 40.707 302.984 40.344 301.384 39.981 299.912 39.661 298.568 39.384 297.224 39.107 296.093 38.787 295.176 38.424 294.259 38.061 293.8 37.496 293.8 36.728 293.8 35.875 294.237 35.16 295.112 34.584 295.987 34.008 297.171 33.72 298.664 33.72 300.584 33.72 302.355 34.072 303.976 34.776 305.597 35.48 306.877 36.323 307.816 37.304 L311.08 31.544 C309.544 30.307 307.741 29.293 305.672 28.504 303.603 27.715 301.267 27.32 298.664 27.32 296.616 27.32 294.803 27.587 293.224 28.12 291.645 28.653 290.323 29.368 289.256 30.264 288.189 31.16 287.379 32.195 286.824 33.368 286.269 34.541 285.992 35.768 285.992 37.048 285.992 39.053 286.44 40.664 287.336 41.88 288.232 43.096 289.363 44.045 290.728 44.728 292.093 45.411 293.565 45.912 295.144 46.232 296.723 46.552 298.195 46.861 299.56 47.16 300.925 47.459 302.056 47.811 302.952 48.216 303.848 48.621 304.296 49.251 304.296 50.104 304.296 51.085 303.88 51.875 303.048 52.472 302.216 53.069 300.904 53.368 299.112 53.368 298.173 53.368 297.192 53.251 296.168 53.016 295.144 52.781 294.152 52.461 293.192 52.056 292.232 51.651 291.347 51.192 290.536 50.68 289.725 50.168 289.021 49.635 288.424 49.08 Z M254.376 54.968 C255.997 56.461 258.035 57.635 260.488 58.488 262.941 59.341 265.512 59.768 268.2 59.768 272.509 59.768 275.827 58.84 278.152 56.984 280.477 55.128 281.64 52.771 281.64 49.912 281.64 47.821 281.181 46.157 280.264 44.92 279.347 43.683 278.216 42.701 276.872 41.976 275.528 41.251 274.056 40.707 272.456 40.344 270.856 39.981 269.384 39.661 268.04 39.384 266.696 39.107 265.565 38.787 264.648 38.424 263.731 38.061 263.272 37.496 263.272 36.728 263.272 35.875 263.709 35.16 264.584 34.584 265.459 34.008 266.643 33.72 268.136 33.72 270.056 33.72 271.827 34.072 273.448 34.776 275.069 35.48 276.349 36.323 277.288 37.304 L280.552 31.544 C279.016 30.307 277.213 29.293 275.144 28.504 273.075 27.715 270.739 27.32 268.136 27.32 266.088 27.32 264.275 27.587 262.696 28.12 261.117 28.653 259.795 29.368 258.728 30.264 257.661 31.16 256.851 32.195 256.296 33.368 255.741 34.541 255.464 35.768 255.464 37.048 255.464 39.053 255.912 40.664 256.808 41.88 257.704 43.096 258.835 44.045 260.2 44.728 261.565 45.411 263.037 45.912 264.616 46.232 266.195 46.552 267.667 46.861 269.032 47.16 270.397 47.459 271.528 47.811 272.424 48.216 273.32 48.621 273.768 49.251 273.768 50.104 273.768 51.085 273.352 51.875 272.52 52.472 271.688 53.069 270.376 53.368 268.584 53.368 267.645 53.368 266.664 53.251 265.64 53.016 264.616 52.781 263.624 52.461 262.664 52.056 261.704 51.651 260.819 51.192 260.008 50.68 259.197 50.168 258.493 49.635 257.896 49.08 Z M221.992 51.768 L240.296 51.768 242.984 59 253.288 59 236.84 16.312 225.448 16.312 209 59 219.304 59 Z M231.144 25.4 L237.8 43.768 224.488 43.768 Z" fill="#ffffff" fill-opacity="1" stroke="none"/>
 </g>
</svg>
